<svg width="70.882mm" height="74.925mm" version="1.1" viewBox="0 0 70.882 74.925" xmlns="http://www.w3.org/2000/svg">
 <g transform="translate(-50.535 -89.429)">
  <g transform="matrix(.26458 0 0 .26458 32.517 194.47)" stroke-width="0px">
   <path class="cls-6" d="m209.6-229.6 119.8-67.9c1.2-0.6 2-2 2-3.5l4.6-19.7c-0.2-2.9-2-3.5-4.3-4.7-2.1-1.1-4.6-1.1-6.8 0l-122.5 63.8c-1.2 0.6-2 2-2 3.5v22c0 6.8 7.1 7.8 9.3 6.7z" fill="#bcbec0"/>
   <path class="cls-10" d="m209.6-229.6 124.4-64.8c1.2-0.6 2-2 2-3.5v-22c0-2.7-2.5-4.6-4.7-3.5l-124.4 64.8c-1.2 0.6-2 2-2 3.5v22c0 2.7 2.5 4.6 4.7 3.5z" fill="#fff"/>
   <path class="cls-9" d="m216.4-243.3 17.1-9.5c0.4-0.2 0.7-0.7 0.7-1.2v-7.9c0-1-0.9-1.6-1.7-1.2l-17.1 9.5c-0.4 0.2-0.7 0.7-0.7 1.2v7.9c0 1 0.9 1.6 1.7 1.2z" fill="#27aae1"/>
   <path class="cls-6" d="m209.5-191.1 119.8-66.9c1.2-0.6 2-2 2-3.5l4.6-19.7c-0.2-2.9-2-3.5-4.3-4.7s-4.6-1.1-6.8 0l-122.5 62.8c-1.2 0.6-2 2-2 3.5v22c0 6.8 7.1 7.8 9.3 6.7z" fill="#bcbec0"/>
   <path class="cls-10" d="m209.5-191.1 124.4-63.7c1.2-0.6 2-2 2-3.5v-22c0-2.7-2.5-4.6-4.7-3.5l-124.4 63.7c-1.2 0.6-2 2-2 3.5v22c0 2.7 2.5 4.6 4.7 3.5z" fill="#fff"/>
   <path class="cls-7" d="m216.3-204.8 17.1-9.5c0.4-0.2 0.7-0.7 0.7-1.2v-7.9c0-1-0.9-1.6-1.7-1.2l-17.1 9.5c-0.4 0.2-0.7 0.7-0.7 1.2v7.9c0 1 0.9 1.6 1.7 1.2z" fill="#58595b"/>
   <path class="cls-6" d="m209.5-152.7 119.8-66.9c1.2-0.6 2-2 2-3.5l4.6-19.7c-0.2-2.9-2-3.5-4.3-4.7-2.1-1.1-4.6-1.1-6.8 0l-122.5 62.8c-1.2 0.6-2 2-2 3.5v22c0 6.8 7.1 7.8 9.3 6.7z" fill="#bcbec0"/>
   <path class="cls-10" d="m209.5-152.7 124.4-63.7c1.2-0.6 2-2 2-3.5v-22c0-2.7-2.5-4.6-4.7-3.5l-124.4 63.7c-1.2 0.6-2 2-2 3.5v22c0 2.7 2.5 4.6 4.7 3.5z" fill="#fff"/>
   <path class="cls-9" d="m216.3-166.4 17.1-9.5c0.4-0.2 0.7-0.7 0.7-1.2v-7.9c0-1-0.9-1.6-1.7-1.2l-17.1 9.5c-0.4 0.2-0.7 0.7-0.7 1.2v7.9c0 1 0.9 1.6 1.7 1.2z" fill="#27aae1"/>
   <path class="cls-6" d="m209.5-114.4 119.8-66.9c1.2-0.6 2-2 2-3.5l4.6-19.7c-0.2-2.9-2-3.5-4.3-4.7-2.1-1.1-4.6-1.1-6.8 0l-122.5 62.8c-1.2 0.6-2 2-2 3.5v22c0 6.8 7.1 7.8 9.3 6.7z" fill="#bcbec0"/>
   <path class="cls-10" d="m209.5-114.4 124.4-63.7c1.2-0.6 2-2 2-3.5v-22c0-2.7-2.5-4.6-4.7-3.5l-124.4 63.7c-1.2 0.6-2 2-2 3.5v22c0 2.7 2.5 4.6 4.7 3.5z" fill="#fff"/>
   <g fill="#27aae1">
    <path class="cls-9" d="m216.3-128.1 17.1-9.5c0.4-0.2 0.7-0.7 0.7-1.2v-7.9c0-1-0.9-1.6-1.7-1.2l-17.1 9.5c-0.4 0.2-0.7 0.7-0.7 1.2v7.9c0 1 0.9 1.6 1.7 1.2z"/>
    <path class="cls-9" d="m238-255 4.2-2.2c0.4-0.2 0.7-0.7 0.7-1.2v-7.9c0-1-0.9-1.6-1.7-1.2l-4.2 2.2c-0.4 0.2-0.7 0.7-0.7 1.2v7.9c0 1 0.9 1.6 1.7 1.2z"/>
    <path class="cls-9" d="m237.9-216.5 4.2-2.2c0.4-0.2 0.7-0.7 0.7-1.2v-7.9c0-1-0.9-1.6-1.7-1.2l-4.2 2.2c-0.4 0.2-0.7 0.7-0.7 1.2v7.9c0 1 0.9 1.6 1.7 1.2z"/>
   </g>
   <path class="cls-7" d="m237.9-178.1 4.2-2.2c0.4-0.2 0.7-0.7 0.7-1.2v-7.9c0-1-0.9-1.6-1.7-1.2l-4.2 2.2c-0.4 0.2-0.7 0.7-0.7 1.2v7.9c0 1 0.9 1.6 1.7 1.2z" fill="#58595b"/>
   <path class="cls-9" d="m237.9-139.8 4.2-2.2c0.4-0.2 0.7-0.7 0.7-1.2v-7.9c0-1-0.9-1.6-1.7-1.2l-4.2 2.2c-0.4 0.2-0.7 0.7-0.7 1.2v7.9c0 1 0.9 1.6 1.7 1.2z" fill="#27aae1"/>
   <path class="cls-7" d="m292.8-244.5 33-17.1c0.4-0.2 0.7-0.7 0.7-1.2v-7.9c0-1-0.9-1.6-1.7-1.2l-33 17.1c-0.4 0.2-0.7 0.7-0.7 1.2v7.9c0 1 0.9 1.6 1.7 1.2z" fill="#58595b"/>
   <path class="cls-9" d="m292.8-206.1 33-17.1c0.4-0.2 0.7-0.7 0.7-1.2v-7.9c0-1-0.9-1.6-1.7-1.2l-33 17.1c-0.4 0.2-0.7 0.7-0.7 1.2v7.9c0 1 0.9 1.6 1.7 1.2z" fill="#27aae1"/>
   <path class="cls-9" d="m292.8-282.8 33-17.1c0.4-0.2 0.7-0.7 0.7-1.2v-7.9c0-1-0.9-1.6-1.7-1.2l-33 17.1c-0.4 0.2-0.7 0.7-0.7 1.2v7.9c0 1 0.9 1.6 1.7 1.2z" fill="#27aae1"/>
   <path class="cls-7" d="m292.8-167.8 33-17.1c0.4-0.2 0.7-0.7 0.7-1.2v-7.9c0-1-0.9-1.6-1.7-1.2l-33 17.1c-0.4 0.2-0.7 0.7-0.7 1.2v7.9c0 1 0.9 1.6 1.7 1.2z" fill="#58595b"/>
   <path class="cls-8" d="m191-115.1-116.4-64.2c-1.2-0.6-2-1.9-2-3.4l-4.5-134.7c0.2-2.8 2-3.5 4.3-4.7 2.1-1.1 4.6-1.1 6.7 0l119.1 60.2c1.2 0.6 2 1.9 2 3.4v136.9c0 6.7-7 7.7-9.2 6.6z" fill="#1e81ab"/>
   <path class="cls-9" d="m191-115.1-120.9-61.1c-1.2-0.6-2-1.9-2-3.4v-137c0-2.7 2.4-4.5 4.6-3.4l120.9 61.1c1.2 0.6 2 1.9 2 3.4v137c0 2.7-2.4 4.5-4.6 3.4z" fill="#27aae1"/>
   <path class="cls-3" d="m72.5-328.2v3.8c0 0.7 0.4 1.4 1 1.7l27.9 14.3c0.5 0.2 1 0.2 1.5 0l128.8-67.3c0.6-0.3 1-1 1-1.7v-4.7" fill="#7d4901"/>
   <path class="cls-5" d="m100.9-313.9c-0.2 0-0.4 0-0.6-0.1l-26.5-13.2c-0.5-0.2-0.8-0.7-0.8-1.3s0.3-1.1 0.8-1.3l129.8-66.5c0.2 0 0.4-0.1 0.6-0.1s0.4 0 0.6 0.1l26.5 13.1c0.5 0.2 0.8 0.7 0.8 1.3s-0.3 1.1-0.8 1.3l-129.8 66.6c-0.2 0-0.4 0.1-0.6 0.1z" fill="#b56c19"/>
   <path class="cls-1" d="m204.2-396.1h0.4l26.5 13.1c0.3 0.2 0.6 0.5 0.6 0.9s-0.2 0.8-0.5 0.9l-129.8 66.6h-0.4-0.4l-26.5-13.2c-0.3-0.2-0.6-0.5-0.6-0.9s0.2-0.8 0.5-0.9l129.8-66.5h0.4m0-0.9c-0.3 0-0.5 0-0.8 0.2l-129.8 66.5c-1.4 0.7-1.4 2.7 0 3.4l26.5 13.2c0.2 0.1 0.5 0.2 0.8 0.2s0.5 0 0.8-0.2l129.8-66.6c1.4-0.7 1.4-2.7 0-3.4l-26.5-13.1c-0.2-0.1-0.5-0.2-0.8-0.2z" fill="#7c4b1e"/>
   <path class="cls-1" d="m104.9-310.7 0.4 2.9c0 0.7 0.4 1.4 1 1.7l27.9 14.3c0.5 0.2 1 0.2 1.5 0l128.8-67.3c0.6-0.3 1-1 1-1.7v-4.7" fill="#7c4b1e"/>
   <path class="cls-5" d="m133.7-297.3c-0.2 0-0.4 0-0.6-0.1l-26.5-13.2c-0.5-0.2-0.8-0.7-0.8-1.3s0.3-1.1 0.8-1.3l129.8-66.5c0.2 0 0.4-0.1 0.6-0.1s0.4 0 0.6 0.1l26.5 13.1c0.5 0.2 0.8 0.7 0.8 1.3s-0.3 1.1-0.8 1.3l-129.8 66.6c-0.2 0-0.4 0.1-0.6 0.1z" fill="#b56c19"/>
   <path class="cls-1" d="m237.1-379.5h0.4l26.5 13.1c0.3 0.2 0.6 0.5 0.6 0.9s-0.2 0.8-0.5 0.9l-129.8 66.6h-0.4-0.4l-26.5-13.2c-0.3-0.2-0.6-0.5-0.6-0.9s0.2-0.8 0.5-0.9l129.8-66.5h0.4m0-0.9c-0.3 0-0.5 0-0.8 0.2l-129.8 66.5c-1.4 0.7-1.4 2.7 0 3.4l26.5 13.2c0.2 0.1 0.5 0.2 0.8 0.2s0.5 0 0.8-0.2l129.8-66.6c1.4-0.7 1.4-2.7 0-3.4l-26.5-13.1c-0.2-0.1-0.5-0.2-0.8-0.2z" fill="#7c4b1e"/>
   <path class="cls-1" d="m137.5-294.2 1 3c0 0.7 0.4 1.4 1 1.7l27.9 14.3c0.5 0.2 1 0.2 1.5 0l128.8-67.3c0.6-0.3 1-1 1-1.7v-4.7" fill="#7c4b1e"/>
   <path class="cls-5" d="m166.9-280.7c-0.2 0-0.4 0-0.6-0.1l-26.5-13.2c-0.5-0.2-0.8-0.7-0.8-1.3s0.3-1.1 0.8-1.3l129.8-66.5c0.2 0 0.4-0.1 0.6-0.1s0.4 0 0.6 0.1l26.5 13.1c0.5 0.2 0.8 0.7 0.8 1.3s-0.3 1.1-0.8 1.3l-129.8 66.6c-0.2 0-0.4 0.1-0.6 0.1z" fill="#b56c19"/>
   <path class="cls-1" d="m270.3-362.9h0.4l26.5 13.1c0.3 0.2 0.6 0.5 0.6 0.9s-0.2 0.8-0.5 0.9l-129.8 66.6h-0.4-0.4l-26.5-13.2c-0.3-0.2-0.6-0.5-0.6-0.9s0.2-0.8 0.5-0.9l129.8-66.5h0.4m0-0.8c-0.3 0-0.5 0-0.8 0.2l-129.8 66.5c-1.4 0.7-1.4 2.7 0 3.4l26.5 13.2c0.2 0.1 0.5 0.2 0.8 0.2s0.5 0 0.8-0.2l129.8-66.6c1.4-0.7 1.4-2.7 0-3.4l-26.5-13.1c-0.2-0.1-0.5-0.2-0.8-0.2z" fill="#7c4b1e"/>
   <path class="cls-1" d="m170.5-277.3 0.7 2.7c0 0.7 0.4 1.4 1 1.7l27.9 14.3c0.5 0.2 1 0.2 1.5 0l128.8-67.3c0.6-0.3 1-1 1-1.7v-4.7" fill="#7c4b1e"/>
   <path class="cls-5" d="m199.6-264c-0.2 0-0.4 0-0.6-0.1l-26.5-13.2c-0.5-0.2-0.8-0.7-0.8-1.3s0.3-1.1 0.8-1.3l129.8-66.5c0.2 0 0.4-0.1 0.6-0.1s0.4 0 0.6 0.1l26.5 13.1c0.5 0.2 0.8 0.7 0.8 1.3s-0.3 1.1-0.8 1.3l-129.8 66.6c-0.2 0-0.4 0.1-0.6 0.1z" fill="#b56c19"/>
   <path class="cls-1" d="m303-346.2h0.4l26.5 13.1c0.3 0.2 0.6 0.5 0.6 0.9s-0.2 0.8-0.5 0.9l-129.8 66.6h-0.4-0.4l-26.5-13.2c-0.3-0.2-0.6-0.5-0.6-0.9s0.2-0.8 0.5-0.9l129.8-66.5h0.4m0-0.9c-0.3 0-0.5 0-0.8 0.2l-129.8 66.5c-1.4 0.7-1.4 2.7 0 3.4l26.5 13.2c0.2 0.1 0.5 0.2 0.8 0.2s0.5 0 0.8-0.2l129.8-66.6c1.4-0.7 1.4-2.7 0-3.4l-26.5-13.1c-0.2-0.1-0.5-0.2-0.8-0.2z" fill="#7c4b1e"/>
   <path class="cls-7" d="m187.8-392.5" fill="#58595b"/>
   <path class="cls-7" d="m187.8-389.9" fill="#58595b"/>
   <path class="cls-1" d="m232.6-283.3v2.9c0 0.6-0.3 1.1-0.8 1.3l-22.8 11.1c-0.4 0.2-0.9 0.2-1.2 0l-126.7-64.3c-0.5-0.2-0.8-0.8-0.8-1.3v-3.7" fill="#7c4b1e"/>
   <path class="cls-5" d="m209.5-272.2c-0.2 0-0.3 0-0.5-0.1l-127.6-63.7c-0.4-0.2-0.6-0.6-0.6-1s0.2-0.8 0.6-1l21.6-10.3c0.2 0 0.3-0.1 0.5-0.1s0.3 0 0.5 0.1l127.6 63.6c0.4 0.2 0.6 0.6 0.6 1s-0.2 0.8-0.6 1l-21.6 10.3c-0.2 0-0.3 0.1-0.5 0.1z" fill="#b56c19"/>
   <path class="cls-1" d="m103.5-348.1h0.3l127.6 63.6c0.3 0.1 0.4 0.4 0.4 0.7s-0.2 0.6-0.4 0.7l-21.6 10.3h-0.3-0.3l-127.6-63.7c-0.3-0.1-0.4-0.4-0.4-0.7s0.2-0.6 0.5-0.7l21.6-10.3h0.3m-0.1-0.6c-0.2 0-0.4 0-0.6 0.1l-21.6 10.3c-1.1 0.5-1.1 2.1 0 2.7l127.6 63.7c0.2 0.1 0.4 0.2 0.7 0.2s0.4 0 0.6-0.1l21.6-10.3c1.1-0.5 1.1-2.1 0-2.7l-127.6-63.6c-0.2-0.1-0.4-0.2-0.7-0.2z" fill="#7c4b1e"/>
   <path class="cls-1" d="m324.6-329.3v2.9c0 0.6-0.3 1.1-0.8 1.3l-22.8 11.1c-0.4 0.2-0.9 0.2-1.2 0l-126.7-64.3c-0.5-0.2-0.8-0.8-0.8-1.3v-3.7" fill="#7c4b1e"/>
   <path class="cls-5" d="m301.4-318.1c-0.2 0-0.3 0-0.5-0.1l-127.6-63.7c-0.4-0.2-0.6-0.6-0.6-1s0.2-0.8 0.6-1l21.6-10.3c0.2 0 0.3-0.1 0.5-0.1s0.3 0 0.5 0.1l127.6 63.6c0.4 0.2 0.6 0.6 0.6 1s-0.2 0.8-0.6 1l-21.6 10.3c-0.2 0-0.3 0.1-0.5 0.1z" fill="#b56c19"/>
   <path class="cls-1" d="m195.4-394h0.3l127.6 63.6c0.3 0.1 0.4 0.4 0.4 0.7s-0.2 0.6-0.4 0.7l-21.6 10.3h-0.3-0.3l-127.6-63.7c-0.3-0.1-0.4-0.4-0.4-0.7s0.2-0.6 0.5-0.7l21.6-10.3h0.3m-0.1-0.6c-0.2 0-0.4 0-0.6 0.1l-21.6 10.3c-1.1 0.5-1.1 2.1 0 2.7l127.6 63.7c0.2 0.1 0.4 0.2 0.7 0.2s0.4 0 0.6-0.1l21.6-10.3c1.1-0.5 1.1-2.1 0-2.7l-127.6-63.6c-0.2-0.1-0.4-0.2-0.7-0.2z" fill="#7c4b1e"/>
   <path class="cls-10" d="m172.4-218.5-16.7-8.6c-0.4-0.2-0.7-0.7-0.7-1.2v-10.9c0-1 1-1.6 1.8-1.2l15.7 8.3c1.5 0.8 3.1 1.2 4.6 1.2 2.3 0 4.4-0.9 6.1-2.7l3.6-3.8c0.5-0.5 0.5-1.3 0-1.9l-2.8-3.2c-0.5-0.5-1.2-0.5-1.7 0l-3.6 3.8c-0.3 0.3-1.3 1.4-3.5 0.3l-35-18.5c-0.6-0.3-1.3 0-1.6 0.6l-1.8 4c-0.3 0.7 0 1.4 0.6 1.8l10.5 5.6c0.4 0.2 0.7 0.7 0.7 1.2v11.2c0 0.9-0.8 1.5-1.6 1.3-2.7-0.9-5.4-0.6-7.7 1-3.4 2.4-5.4 7.2-5.4 13.2v14.9c-0.2 14 7 28.4 16.2 32.7 4.1 1.9 8.2 1.7 11.6-0.7 4.4-3.1 7-9.5 7.1-17.5l0.4-24.6 0.3 0.2c5.3 2.7 9.8 12.5 9.8 21.3v17.5c0 4.6-1.4 7.2-2.7 8.1-0.3 0.2-0.9 0.7-2.2 0.4s-1.1 0.2-1.4 0.8l-1.6 4.1c-0.3 0.7 0 1.5 0.7 1.8 1 0.3 2 0.5 3 0.5 1.8 0 3.5-0.6 5-1.6 3.5-2.5 5.5-7.6 5.5-14v-17.5c0-11.7-5.9-23.8-13.5-27.7zm-32.1 16.3v-14.9c0.1-4.1 1.4-6.5 2.5-7.3 0.4-0.3 0.8-0.4 1.3-0.4s1.1 0.2 1.8 0.5l1.9 1c0.4 0.2 0.7 0.7 0.7 1.2l-0.2 39.1c0 1.3-1.5 1.8-2.2 0.8-3.5-5.3-5.9-12.8-5.8-19.9zm22.2 14.4c0 5.5-1.7 9.9-4.2 11.7-0.7 0.5-1.5 0.8-2.3 0.9s-1.3-0.5-1.3-1.3l0.2-41c0-1 0.9-1.6 1.7-1.2l5.6 2.9c0.4 0.2 0.7 0.7 0.7 1.2l-0.4 26.9z" fill="#fff"/>
   <path class="cls-10" d="m127.4-182.8-8.8-4.5v-14.3c-1.6-7.8-4-14.8-7.3-21.1-3.2-6.2-6.7-10.1-10.4-11.7-3.2-1.5-5.6-1.4-7.1 0.2s-2.4 4.7-2.4 9.2v2c1 0 2 0.3 3 0.8 2.3 1.1 4.4 3.2 6.1 6.4 1.7 3.1 2.5 6.3 2.5 9.5s-0.9 5.5-2.7 6.9-3.8 1.5-6.1 0.3c-3.5-1.8-6.2-4.8-8.1-8.9-1.8-4.1-2.7-9-2.7-14.8v-6.1c0.1-6.8 1.7-11.6 4.7-14.3 3.1-2.8 7.4-3 13-0.5 3.8 1.7 7.2 4.7 10.4 9.1 3.2 4.5 5.7 9.6 7.3 15.5l0.2-17.8c0-5.4-1-10.2-3.2-14.2s-6-7.2-11.6-9.5-7.7-2.1-10.2-1-4.2 3.5-5.1 7.4l-7.6-4.7c1.2-6.5 3.7-10.8 7.7-12.7s9.6-1.5 16.7 1.4c7.5 3 13.1 7.4 16.7 13.2 3.7 5.9 5.5 13.6 5.4 23.2l-0.4 51.1zm-33.1-23.8c0.8 0.4 1.5 0.3 2.1-0.2s0.9-1.3 0.9-2.4-0.3-2.1-0.9-3.2-1.3-1.9-2.1-2.2-1.5-0.3-2.1 0.2-0.9 1.3-0.9 2.3c0 1.1 0.3 2.2 0.9 3.3s1.3 1.9 2.1 2.3z" fill="#fff"/>
  </g>
 </g>
</svg>
