
<svg version="1.1" viewBox="0 0 70.326 74.181" xmlns="http://www.w3.org/2000/svg">
 <g transform="translate(-23.812 -58.737)">
  <g transform="matrix(.26458 0 0 .26458 7.1173 -61.82)" stroke-width="0px">
   <g>
    <polygon class="cls-10" points="78.7 516.6 108.9 531.7 132.6 519.5 102.4 504.5"/>
    <polygon class="cls-10" points="165.1 535.8 134.9 520.7 111.2 532.9 141.4 548"/>
    <polygon class="cls-10" points="197.9 552.1 167.7 537.1 144 549.2 174.1 564.3"/>
   </g>
   <g>
    <path class="cls-10" d="m324.2 527.7-124.4 63.7c-1.2 0.6-2 2-2 3.5v22c0 2.7 2.5 4.6 4.7 3.5l124.4-63.7c1.2-0.6 2-2 2-3.5v-22c0-2.7-2.5-4.6-4.7-3.5zm-97.3 68.5c0 0.5-0.3 1-0.7 1.2l-16.9 9.2c-0.8 0.4-1.7-0.3-1.7-1.2v-7.9c0-0.5 0.3-1 0.7-1.2l16.9-9.2c0.8-0.4 1.7 0.3 1.7 1.2zm8.7-4.4c0 0.5-0.3 1-0.7 1.2l-4.2 2.2c-0.8 0.4-1.7-0.3-1.7-1.2v-7.9c0-0.5 0.3-1 0.7-1.2l4.2-2.2c0.8-0.4 1.7 0.3 1.7 1.2zm83.9-43.2c0 0.5-0.3 1-0.7 1.2l-33 17.1c-0.8 0.4-1.7-0.3-1.7-1.2v-7.9c0-0.5 0.3-1 0.7-1.2l33-17.1c0.8-0.4 1.7 0.3 1.7 1.2z"/>
    <path class="cls-10" d="m324.1 566.3-124.4 63.7c-1.2 0.6-2 2-2 3.5v22c0 2.7 2.5 4.6 4.7 3.5l124.4-63.7c1.2-0.6 2-2 2-3.5v-22c0-2.7-2.5-4.6-4.7-3.5zm-97.3 68.5c0 0.5-0.3 1-0.7 1.2l-16.9 9.2c-0.8 0.4-1.7-0.3-1.7-1.2v-7.9c0-0.5 0.3-1 0.7-1.2l16.9-9.2c0.8-0.4 1.7 0.3 1.7 1.2zm8.7-4.4c0 0.5-0.3 1-0.7 1.2l-4.2 2.2c-0.8 0.4-1.7-0.3-1.7-1.2v-7.9c0-0.5 0.3-1 0.7-1.2l4.2-2.2c0.8-0.4 1.7 0.3 1.7 1.2zm83.9-43.3c0 0.5-0.3 1-0.7 1.2l-33 17.1c-0.8 0.4-1.7-0.3-1.7-1.2v-7.9c0-0.5 0.3-1 0.7-1.2l33-17.1c0.8-0.4 1.7 0.3 1.7 1.2z"/>
    <path class="cls-10" d="m324.1 604.6-124.4 63.7c-1.2 0.6-2 2-2 3.5v22c0 2.7 2.5 4.6 4.7 3.5l124.4-63.7c1.2-0.6 2-2 2-3.5v-22c0-2.7-2.5-4.6-4.7-3.5zm-97.3 68.5c0 0.5-0.3 1-0.7 1.2l-16.9 9.2c-0.8 0.4-1.7-0.3-1.7-1.2v-7.9c0-0.5 0.3-1 0.7-1.2l16.9-9.2c0.8-0.4 1.7 0.3 1.7 1.2zm8.7-4.4c0 0.5-0.3 1-0.7 1.2l-4.2 2.2c-0.8 0.4-1.7-0.3-1.7-1.2v-7.9c0-0.5 0.3-1 0.7-1.2l4.2-2.2c0.8-0.4 1.7 0.3 1.7 1.2zm83.9-43.2c0 0.5-0.3 1-0.7 1.2l-33 17.1c-0.8 0.4-1.7-0.3-1.7-1.2v-7.9c0-0.5 0.3-1 0.7-1.2l33-17.1c0.8-0.4 1.7 0.3 1.7 1.2z"/>
    <path class="cls-10" d="m324.1 643-124.4 63.7c-1.2 0.6-2 2-2 3.5v22c0 2.7 2.5 4.6 4.7 3.5l124.4-63.7c1.2-0.6 2-2 2-3.5v-22c0-2.7-2.5-4.6-4.7-3.5zm-97.3 68.5c0 0.5-0.3 1-0.7 1.2l-16.9 9.2c-0.8 0.4-1.7-0.3-1.7-1.2v-7.9c0-0.5 0.3-1 0.7-1.2l16.9-9.2c0.8-0.4 1.7 0.3 1.7 1.2zm8.7-4.4c0 0.5-0.3 1-0.7 1.2l-4.2 2.2c-0.8 0.4-1.7-0.3-1.7-1.2v-7.9c0-0.5 0.3-1 0.7-1.2l4.2-2.2c0.8-0.4 1.7 0.3 1.7 1.2zm83.9-43.3c0 0.5-0.3 1-0.7 1.2l-33 17.1c-0.8 0.4-1.7-0.3-1.7-1.2v-7.9c0-0.5 0.3-1 0.7-1.2l33-17.1c0.8-0.4 1.7 0.3 1.7 1.2z"/>
   </g>
   <g>
    <path class="cls-10" d="m224.2 472.6 1-0.5c1.3-0.7 1.3-2.7 0-3.4l-26.1-12.9c-0.5-0.2-1.1-0.2-1.6 0l-3.5 1.8 30.1 15z"/>
    <polygon class="cls-10" points="168.1 470.8 198.2 485.9 221.9 473.7 191.8 458.7"/>
   </g>
   <g>
    <path class="cls-10" d="m188.6 591.5-120.9-61.1c-2.2-1.1-4.6 0.7-4.6 3.4v137c0 1.5 0.8 2.8 2 3.4l120.9 61.1c2.2 1.1 4.6-0.7 4.6-3.4v-137c0-1.5-0.8-2.8-2-3.4zm-68.6 79.5-8.8-4.5v-14.3c-1.6-7.8-4-14.8-7.3-21.1-3.2-6.2-6.7-10.1-10.4-11.7-3.2-1.5-5.6-1.4-7.1 0.2-1.6 1.6-2.4 4.7-2.4 9.2v2c1 0 2 0.3 3 0.8 2.3 1.1 4.4 3.2 6.1 6.4 1.7 3.1 2.5 6.3 2.5 9.5s-0.9 5.5-2.7 6.9c-1.7 1.4-3.8 1.5-6.1 0.3-3.5-1.8-6.2-4.8-8.1-8.9-1.8-4.1-2.7-9-2.7-14.8v-6.1c0.1-6.8 1.7-11.6 4.7-14.3 3.1-2.8 7.4-3 13-0.5 3.8 1.7 7.2 4.7 10.4 9.1 3.2 4.5 5.7 9.6 7.3 15.5l0.2-17.8c0-5.4-1-10.2-3.2-14.2s-6-7.2-11.6-9.5c-4.3-1.8-7.7-2.1-10.2-1s-4.2 3.5-5.1 7.4l-7.6-4.7c1.2-6.5 3.7-10.8 7.7-12.7s9.6-1.5 16.7 1.4c7.5 3 13.1 7.4 16.7 13.2 3.7 5.9 5.5 13.6 5.4 23.2l-0.4 51.1zm59.4-54.7-3.6 3.8c-1.7 1.8-3.9 2.7-6.1 2.7s-3-0.4-4.6-1.2l-15.7-8.3c-0.8-0.4-1.7 0.2-1.7 1.2v10.9c0 0.5 0.2 1 0.6 1.2l16.7 8.6c7.6 3.9 13.6 16.1 13.5 27.7v17.5c0 6.4-2.1 11.5-5.6 14-1.5 1.1-3.2 1.6-5 1.6s-2-0.2-3-0.5c-0.7-0.2-1-1.1-0.7-1.8l1.6-4.1c0.2-0.6 0.8-0.9 1.4-0.8 1.2 0.3 1.9-0.2 2.2-0.4 1.3-0.9 2.6-3.5 2.6-8.1v-17.5c0-8.8-4.4-18.6-9.8-21.3l-0.3-0.2-0.4 24.6c-0.1 8-2.7 14.4-7.1 17.5-3.4 2.4-7.5 2.7-11.6 0.7-9.2-4.4-16.4-18.7-16.3-32.7v-14.9c0.1-6 2.1-10.8 5.5-13.2 2.3-1.6 5-1.9 7.7-1 0.8 0.3 1.5-0.4 1.5-1.3v-11.2c0-0.5-0.2-1-0.6-1.2l-10.5-5.6c-0.6-0.3-0.8-1.1-0.6-1.8l1.8-4c0.3-0.7 1-0.9 1.6-0.6l35 18.5c2.1 1.1 3.1 0 3.5-0.3l3.6-3.8c0.5-0.5 1.2-0.5 1.7 0l2.8 3.2c0.5 0.5 0.4 1.4 0 1.9z"/>
    <path class="cls-10" d="m84.8 644.8c0.6 1.1 1.3 1.9 2.1 2.3s1.5 0.3 2.1-0.2 0.9-1.3 0.9-2.4-0.3-2.1-0.9-3.2-1.3-1.9-2.1-2.2c-0.8-0.4-1.5-0.3-2.1 0.2s-0.9 1.3-0.9 2.3c0 1.1 0.3 2.2 0.9 3.3z"/>
    <path class="cls-10" d="m140.4 630.4-1.9-1c-0.6-0.3-1.2-0.5-1.8-0.5s-0.9 0.1-1.3 0.4c-1.2 0.8-2.4 3.1-2.4 7.3v14.9c-0.2 7.1 2.2 14.6 5.7 19.9 0.7 1 2.2 0.5 2.2-0.8l0.2-39.1c0-0.5-0.3-1-0.7-1.2z"/>
    <path class="cls-10" d="m147.3 677.1c0 0.8 0.6 1.4 1.3 1.3 0.8 0 1.6-0.4 2.3-0.9 2.5-1.8 4.1-6.2 4.2-11.7l0.4-26.9c0-0.5-0.3-1-0.7-1.2l-5.6-2.9c-0.8-0.4-1.7 0.2-1.7 1.2l-0.2 41z"/>
   </g>
   <path class="cls-10" d="m77 514.7c-0.4-0.1-0.7 0.2-0.7 0.5v2.8c0 0.6 0.3 1.1 0.8 1.3l124.8 63.3c0.4 0.2 0.8 0.2 1.2 0l22.4-11c0.5-0.2 0.8-0.7 0.8-1.3v-3.7c0-0.2-0.1-0.4-0.3-0.5l-25.8-12.9-123.1-38.5z"/>
   <g>
    <path class="cls-10" d="m76.2 521.2c-0.9-0.5-1.6-1.3-1.8-2.4l-4.7 2.4c-1.3 0.7-1.3 2.7 0 3.4l26.1 13c0.5 0.2 1.1 0.2 1.6 0l5.6-2.9-26.7-13.6z"/>
    <path class="cls-10" d="m77.1 519.4 28 14.2 1.5-0.8-30.2-15.1h-0.1v0.3c0 0.6 0.3 1.1 0.8 1.3z"/>
   </g>
   <path class="cls-10" d="m225.4 565.9-125.7-62.7c-0.4-0.2-0.9-0.2-1.3 0l-21.3 10.1c-1.1 0.5-1.1 2.1 0 2.6l125.6 62.7c0.4 0.2 0.9 0.2 1.3 0l21.3-10.2c1.1-0.5 1.1-2.1 0-2.6z"/>
   <g>
    <polygon class="cls-10" points="200.6 487.1 230.7 502.1 254.5 490 224.4 474.9"/>
    <path class="cls-10" d="m256.7 488.8 0.8-0.4c1.3-0.7 1.3-2.7 0-3.4l-26.1-12.9c-0.5-0.2-1.1-0.2-1.6 0l-3.3 1.7 30.1 15z"/>
   </g>
   <g>
    <polygon class="cls-10" points="233.4 503.5 263.5 518.5 287.3 506.3 257.2 491.3"/>
    <path class="cls-10" d="m289.5 505.2 0.7-0.4c1.3-0.7 1.3-2.7 0-3.4l-26.1-12.9c-0.5-0.2-1.1-0.2-1.6 0l-3.2 1.6 30.1 15z"/>
   </g>
   <path class="cls-10" d="m314.3 519.7-125.7-62.7c-0.4-0.2-0.9-0.2-1.3 0l-21.3 10.1c-1.1 0.5-1.1 2.1 0 2.6l125.6 62.7c0.4 0.2 0.9 0.2 1.3 0l21.3-10.2c1.1-0.5 1.1-2.1 0-2.6z"/>
   <g>
    <polygon class="cls-10" points="107.5 534.8 137.4 550 139.1 549.1 109 534"/>
    <path class="cls-10" d="m105.3 535.9-3.3 1.7c-1.3 0.7-1.3 2.7 0 3.4l26.1 13c0.5 0.2 1.1 0.2 1.6 0l5.5-2.8-30-15.2z"/>
   </g>
   <g>
    <polygon class="cls-10" points="140 551.3 169.9 566.5 171.9 565.5 141.7 550.4"/>
    <path class="cls-10" d="m137.8 552.4-3.1 1.6c-1.3 0.7-1.3 2.7 0 3.4l26.1 13c0.5 0.2 1.1 0.2 1.6 0l5.4-2.8z"/>
   </g>
   <g>
    <path class="cls-10" d="m174.1 566.7-1.9 1 29.6 15c0.1 0 0.3 0.1 0.4 0.1l2-1-30.2-15.1z"/>
    <path class="cls-10" d="m170.1 568.8-3.2 1.6c-1.3 0.7-1.3 2.7 0 3.4l26.1 13c0.5 0.2 1.1 0.2 1.6 0l5.4-2.8-30-15.2z"/>
   </g>
   <path class="cls-10" d="m226 566.2-19.1-9.6 16.4 16.2 2.6-1.3c0.3-0.3 0.4-0.6 0.4-1v-3.7c0-0.2-0.1-0.4-0.3-0.5z"/>
   <path class="cls-10" d="m165.9 468.5c-0.4-0.1-0.7 0.2-0.7 0.5v2.8c0 0.6 0.3 1.1 0.8 1.3l124.8 63.3c0.4 0.2 0.8 0.2 1.2 0l22.4-11c0.5-0.2 0.8-0.7 0.8-1.3v-3.7c0-0.2-0.1-0.4-0.3-0.5l-25.8-12.9-123.1-38.5z"/>
   <g>
    <path class="cls-10" d="m165.9 473.2 28.7 14.5 1.4-0.7-29.1-14.5-0.9-0.6-0.8 0.4c0.1 0.4 0.4 0.7 0.7 0.9z"/>
    <path class="cls-10" d="m165 475c-0.7-0.4-1.3-1-1.6-1.7l-58.8 30.1 30.2 15 57.6-29.5z"/>
   </g>
   <g>
    <polygon class="cls-10" points="167.4 534.6 224.7 505.2 194.8 490.1 137.2 519.6"/>
    <polygon class="cls-10" points="197 489 226.9 504.1 228.5 503.3 198.4 488.2"/>
   </g>
   <g>
    <polygon class="cls-10" points="200.1 551 257.2 521.7 227.3 506.6 170 535.9"/>
    <polygon class="cls-10" points="229.5 505.4 259.4 520.6 261.3 519.6 231.2 504.6"/>
   </g>
   <g>
    <path class="cls-10" d="m314.8 520-25-12.5-28 14.3 28.9 14.7c0.2 0 0.4 0.1 0.6 0.1s0.4 0 0.6-0.1l18.4-9 4.4-2.3c0.2-0.3 0.4-0.6 0.4-1v-3.7c0-0.2-0.1-0.4-0.3-0.5z"/>
    <path class="cls-10" d="m259.6 522.9-57.1 29.2 24.4 12.2c0.9 0.4 1.4 1.3 1.4 2.3v3.5l61.4-32-30.1-15.3z"/>
    <path class="cls-10" d="m322.4 517.8-26.1-12.9c-0.5-0.2-1.1-0.2-1.6 0l-2.7 1.4 23.7 11.9c0.9 0.4 1.4 1.3 1.4 2.3v3.4l5.3-2.7c1.3-0.7 1.3-2.7 0-3.4z"/>
   </g>
  </g>
 </g>
</svg>
