<svg xmlns="http://www.w3.org/2000/svg" viewBox="0 0 295 209" fill-rule="evenodd" xmlns:v="https://vecta.io/nano"><path d="M242.927 50.552c-3.318.76-8.099 2.352-10.623 3.539s-5.9 3.822-7.499 5.857-3.979 5.165-4.877 7.365-2.414 5.934-2.884 8.052-1.317 8.06-1.317 9.937.258 5.076.9 6.946 2.177 4.757 3.826 6.783 3.295 3.379 4.967 4.798 3.925 2.456 6.04 3.061 7.325 2.351 12 3.353 11.838 2.664 15.918 3.693c6.319 1.593 7.91 2.451 10.735 5.791 2.699 3.189 3.32 4.778 3.332 8.521.008 2.53-.478 6.13-1.08 8s-2.665 4.83-4.585 6.579-8.485 5.288-10.427 6.025c-.512.194-2.722 1.23-6.79 1.696-2.009.23-6.011.319-6.861.215-3.155-.388-8.52-1.573-11.916-2.693s-6.699-2.668-7.34-3.44-1.411-3.335-1.711-5.694-.989-4.851-1.532-5.539-1.817-1.25-2.83-1.25-2.308.87-2.878 1.934-1.035 5.719-1.035 10.345c0 6.771.341 8.704 1.75 9.914.963.827 5.045 1.995 6.145 2.392s5.934 2.148 11.249 3.153 10.364 1.543 14.361 1.262c4.747-.334 9.829-.784 14.14-2.111 3.77-1.161 8.205-2.792 9.855-3.625s4.923-3.071 7.274-4.975 6.68-7.204 7.444-9.686c1.244-4.041 2.519-6.206 2.312-13.517-.172-6.061-.623-8.475-1.786-12.107-.625-1.951-4.487-7.575-6.53-9.479-2.596-2.42-6.122-4.205-11.714-5.928-4.4-1.355-10.25-3.015-13-3.687s-9.217-2.82-14.37-4.772c-7.957-3.014-9.597-4.025-10.874-6.702-1.36-2.852-1.333-3.663.283-8.531.983-2.959 3.073-6.582 4.645-8.051s4.798-3.937 7.421-4.88c4.155-1.494 5.589-1.89 11.075-1.541 3.594.228 8.125 1.438 10.094 2.38s4.425 3.235 5.458 5.096 2.865 4.208 4.072 5.217 2.995 1.847 3.971 1.866c1.032.019 2.213-1.117 2.823-2.717.577-1.513 1.296-4.82 1.597-7.35.408-3.425.093-5.294-1.234-7.32-.981-1.496-4.523-4.056-7.872-5.689-4.987-2.431-7.718-3.05-15.089-3.417-5.67-.283-11.232.062-15.033.931z" fill="#040404"/><path d="M90.29 6.018c-3.988.434-8.45 1.352-11.595 2.173s-10.796 3.092-16.452 5.599S47.91 21.187 42.96 24.655 32.344 32.69 30.369 34.804s-5.706 6.493-8.289 9.732-6.429 9.54-8.545 14-4.801 12.386-5.968 17.611-2.118 12.2-2.114 15.5.687 9.6 1.517 14c.942 4.988 3.219 11.555 6.051 17.444 2.497 5.194 6.5 12.191 8.896 15.547s7.3 8.859 10.9 12.226 9.829 8.26 13.844 10.873 10.997 6.213 15.516 8 10.594 3.937 13.5 4.777 8.433 2.03 12.283 2.643 12.955 1.102 20.234 1.086c13.235-.027 13.235-.027 23 6.602 5.371 3.645 11.241 7.902 13.044 9.459s8.791 5.827 11.083 6.996c4.166 2.126 3.505 1.741 3.712-1.096.115-1.574.449-4.916.477-6.918s.632-10.177 1.343-18.168c1.294-14.529 1.294-14.529 11.363-24.676 6.127-6.174 11.621-12.819 14.031-16.971 2.179-3.753 4.911-8.704 6.071-11.002s3.28-8.147 4.712-13c1.872-6.344 2.595-11.069 2.576-16.822-.014-4.462-.934-11.874-2.079-16.758-1.129-4.817-3.915-12.467-6.191-17s-5.507-10.267-7.18-12.742-5.204-7.024-7.846-10.109-8.261-7.999-12.487-10.921-13.713-8.426-21.358-11.607c-10.203-4.245-14.009-5.148-20.572-6.293-4.839-.844-12.923-1.89-18.213-1.834s-9.402.201-13.39.635zm-1.839 37.338c-5.491 1.374-11.806 4.296-14.754 6.056s-9.503 7.485-12.004 10.235-5.843 7.025-7.426 9.5-3.79 7.425-4.903 11c-1.53 4.913-2.029 9.307-2.045 18-.014 7.539.536 13.545 1.596 17.437.889 3.266 2.459 7.841 3.488 10.167s3.736 6.755 6.016 9.841 6.26 7.168 8.844 9.07 8.17 4.814 12.415 6.472c7.15 2.791 9.804 3.968 21.649 3.968 9.777 0 14.7-.241 20.035-1.767 3.838-1.098 6.631-1.503 12.173-5.008s7.947-5.835 11.446-9.645c3.585-3.904 7.42-9.434 9.233-13.035 1.662-3.3 3.718-8.347 4.57-11.216s1.853-8.313 2.226-12.098c.381-3.859.168-10.791-.485-15.784-.752-5.761-2.199-11.137-4.1-15.235-1.865-4.021-5.336-8.818-9.508-13.139-4.657-4.824-8.374-7.616-12.764-9.589-3.406-1.531-8.893-3.366-12.193-4.076s-6.545-1.556-15.423-2.416c-7.025-.289-11.686-.217-18.086 1.262zm5.033 11.394c-3.011.809-7.361 2.577-9.666 3.927s-5.777 4.31-7.717 6.577-4.397 5.982-5.459 8.257-2.438 6.521-3.057 9.435-1.125 9.008-1.125 13.54.671 10.818 1.492 13.968 2.58 7.857 3.911 10.46 4.075 6.652 6.098 8.997 5.55 5.541 7.839 7.102 6.216 3.315 9.888 4.252 6.848 1.299 11.311 1.338 7.936-.643 11.48-1.818 5.34-2.716 6.664-3.512 4.325-3.402 6.027-5.19 3.689-4.653 5.65-8.585c3.148-6.316 3.642-8.364 4.237-17.564.428-6.625.241-12.898-.516-17.242-.654-3.757-2.744-10.106-4.644-14.11-2.303-4.852-4.972-8.616-8.003-11.284-3.017-2.656-7.405-5.037-13.043-7.077-4.673-1.691-8.93-2.224-11.291-2.352s-7.064.072-10.076.881z" fill="#848404"/></svg>