<svg width="108" height="108" viewBox="0 0 108 108" fill="none" xmlns="http://www.w3.org/2000/svg">
<path d="M55.8652 59.8351L83.4787 44.1844C83.7553 44.0461 83.9397 43.7234 83.9397 43.3776L84.9999 38.8368C84.9538 38.1684 84.539 38.0301 84.0088 37.7535C83.5248 37.5 82.9485 37.5 82.4414 37.7535L54.2056 52.4592C53.929 52.5975 53.7446 52.9202 53.7446 53.2659V58.3368C53.7446 59.9042 55.3812 60.1347 55.8882 59.8812L55.8652 59.8351Z" fill="#BCBEC0"/>
<path d="M55.8653 59.8351L84.5391 44.899C84.8157 44.7607 85.0001 44.438 85.0001 44.0922V39.0213C85.0001 38.399 84.4238 37.961 83.9167 38.2146L55.243 53.1507C54.9664 53.289 54.782 53.6117 54.782 53.9575V59.0284C54.782 59.6507 55.3582 60.0887 55.8653 59.8351Z" fill="white"/>
<path d="M57.4326 56.6772L61.3741 54.4875C61.4663 54.4414 61.5355 54.3261 61.5355 54.2109V52.39C61.5355 52.1595 61.328 52.0212 61.1436 52.1134L57.2021 54.3031C57.1099 54.3492 57.0408 54.4644 57.0408 54.5797V56.4006C57.0408 56.6311 57.2482 56.7694 57.4326 56.6772Z" fill="#27AAE1"/>
<path d="M55.8422 68.7091L83.4557 53.2889C83.7323 53.1506 83.9167 52.8279 83.9167 52.4822L84.977 47.9414C84.9309 47.273 84.516 47.1347 83.9859 46.8581C83.4557 46.5815 82.9256 46.6045 82.4185 46.8581L54.1827 61.3333C53.9061 61.4716 53.7217 61.7942 53.7217 62.14V67.2109C53.7217 68.7783 55.3582 69.0088 55.8653 68.7552L55.8422 68.7091Z" fill="#BCBEC0"/>
<path d="M55.8421 68.7093L84.5159 54.0267C84.7925 53.8884 84.9769 53.5657 84.9769 53.2199V48.149C84.9769 47.5267 84.4006 47.0887 83.8935 47.3423L55.2198 62.0249C54.9432 62.1632 54.7588 62.4859 54.7588 62.8316V67.9025C54.7588 68.5249 55.335 68.9628 55.8421 68.7093Z" fill="white"/>
<path d="M57.4095 65.5515L61.351 63.3617C61.4432 63.3156 61.5124 63.2004 61.5124 63.0851V61.2642C61.5124 61.0337 61.3049 60.8954 61.1205 60.9876L57.179 63.1773C57.0868 63.2234 57.0177 63.3387 57.0177 63.4539V65.2749C57.0177 65.5054 57.2251 65.6436 57.4095 65.5515Z" fill="#58595B"/>
<path d="M55.8422 77.5603L83.4557 62.1401C83.7323 62.0018 83.9167 61.6791 83.9167 61.3333L84.977 56.7925C84.9309 56.1241 84.516 55.9858 83.9859 55.7092C83.5018 55.4557 82.9256 55.4557 82.4185 55.7092L54.1827 70.1844C53.9061 70.3227 53.7217 70.6454 53.7217 70.9911V76.062C53.7217 77.6294 55.3582 77.8599 55.8653 77.6064L55.8422 77.5603Z" fill="#BCBEC0"/>
<path d="M55.8421 77.5602L84.5159 62.8776C84.7925 62.7393 84.9769 62.4166 84.9769 62.0709V56.9999C84.9769 56.3776 84.4006 55.9397 83.8935 56.1932L55.2198 70.8758C54.9432 71.0141 54.7588 71.3368 54.7588 71.6826V76.7535C54.7588 77.3758 55.335 77.8138 55.8421 77.5602Z" fill="white"/>
<path d="M57.4095 74.4025L61.351 72.2128C61.4432 72.1667 61.5124 72.0515 61.5124 71.9362V70.1153C61.5124 69.8848 61.3049 69.7465 61.1205 69.8387L57.179 72.0284C57.0868 72.0745 57.0177 72.1898 57.0177 72.305V74.1259C57.0177 74.3564 57.2251 74.4947 57.4095 74.4025Z" fill="#27AAE1"/>
<path d="M55.8422 86.3883L83.4557 70.9681C83.7323 70.8298 83.9167 70.5071 83.9167 70.1613L84.977 65.6205C84.9309 64.9521 84.516 64.8138 83.9859 64.5372C83.5018 64.2837 82.9256 64.2837 82.4185 64.5372L54.1827 79.0124C53.9061 79.1507 53.7217 79.4734 53.7217 79.8191V84.89C53.7217 86.4574 55.3582 86.6879 55.8653 86.4344L55.8422 86.3883Z" fill="#BCBEC0"/>
<path d="M55.8421 86.3882L84.5159 71.7056C84.7925 71.5673 84.9769 71.2446 84.9769 70.8989V65.828C84.9769 65.2056 84.4006 64.7677 83.8935 65.0212L55.2198 79.7038C54.9432 79.8421 54.7588 80.1648 54.7588 80.5106V85.5815C54.7588 86.2038 55.335 86.6418 55.8421 86.3882Z" fill="white"/>
<path d="M57.4095 83.2305L61.351 81.0408C61.4432 80.9947 61.5124 80.8795 61.5124 80.7642V78.9433C61.5124 78.7128 61.3049 78.5745 61.1205 78.6667L57.179 80.8564C57.0868 80.9025 57.0177 81.0178 57.0177 81.133V82.9539C57.0177 83.1844 57.2251 83.3227 57.4095 83.2305Z" fill="#27AAE1"/>
<path d="M62.4114 53.9805L63.3795 53.4734C63.4717 53.4273 63.5408 53.3121 63.5408 53.1968V51.3759C63.5408 51.1454 63.3334 51.0071 63.149 51.0993L62.1809 51.6064C62.0887 51.6525 62.0195 51.7678 62.0195 51.883V53.7039C62.0195 53.9344 62.227 54.0727 62.4114 53.9805Z" fill="#27AAE1"/>
<path d="M62.3882 62.8545L63.3563 62.3475C63.4485 62.3014 63.5176 62.1861 63.5176 62.0709V60.2499C63.5176 60.0194 63.3102 59.8811 63.1258 59.9733L62.1577 60.4804C62.0655 60.5265 61.9963 60.6418 61.9963 60.757V62.5779C61.9963 62.8084 62.2038 62.9467 62.3882 62.8545Z" fill="#27AAE1"/>
<path d="M62.3882 71.7057L63.3563 71.1986C63.4485 71.1525 63.5176 71.0373 63.5176 70.9221V69.1011C63.5176 68.8706 63.3102 68.7323 63.1258 68.8245L62.1577 69.3316C62.0655 69.3777 61.9963 69.493 61.9963 69.6082V71.4291C61.9963 71.6596 62.2038 71.7979 62.3882 71.7057Z" fill="#58595B"/>
<path d="M62.3882 80.5337L63.3563 80.0267C63.4485 79.9806 63.5176 79.8653 63.5176 79.7501V77.9291C63.5176 77.6986 63.3102 77.5603 63.1258 77.6525L62.1577 78.1596C62.0655 78.2057 61.9963 78.321 61.9963 78.4362V80.2571C61.9963 80.4876 62.2038 80.6259 62.3882 80.5337Z" fill="#27AAE1"/>
<path d="M75.0427 56.4006L82.6491 52.4591C82.7413 52.413 82.8105 52.2978 82.8105 52.1826V50.3616C82.8105 50.1311 82.603 49.9928 82.4186 50.085L74.8122 54.0265C74.72 54.0726 74.6509 54.1879 74.6509 54.3031V56.124C74.6509 56.3545 74.8583 56.4928 75.0427 56.4006Z" fill="#58595B"/>
<path d="M75.0427 65.2518L82.6491 61.3103C82.7413 61.2642 82.8105 61.149 82.8105 61.0337V59.2128C82.8105 58.9823 82.603 58.844 82.4186 58.9362L74.8122 62.8777C74.72 62.9238 74.6509 63.0391 74.6509 63.1543V64.9752C74.6509 65.2057 74.8583 65.344 75.0427 65.2518Z" fill="#27AAE1"/>
<path d="M75.0427 47.5726L82.6491 43.6311C82.7413 43.585 82.8105 43.4698 82.8105 43.3545V41.5336C82.8105 41.3031 82.603 41.1648 82.4186 41.257L74.8122 45.1985C74.72 45.2446 74.6509 45.3599 74.6509 45.4751V47.296C74.6509 47.5265 74.8583 47.6648 75.0427 47.5726Z" fill="#27AAE1"/>
<path d="M75.0427 74.0798L82.6491 70.1383C82.7413 70.0922 82.8105 69.977 82.8105 69.8617V68.0408C82.8105 67.8103 82.603 67.672 82.4186 67.7642L74.8122 71.7057C74.72 71.7518 74.6509 71.8671 74.6509 71.9823V73.8032C74.6509 74.0337 74.8583 74.172 75.0427 74.0798Z" fill="#58595B"/>
<path d="M51.578 86.2269L24.7482 71.429C24.4716 71.2907 24.2872 70.9911 24.2872 70.6453L23.25 39.5975C23.2961 38.9521 23.711 38.7907 24.2411 38.5141C24.7252 38.2606 25.3014 38.2606 25.7855 38.5141L53.2376 52.39C53.5142 52.5283 53.6986 52.828 53.6986 53.1737V84.7287C53.6986 86.273 52.0851 86.5035 51.578 86.25V86.2269Z" fill="#1E81AB"/>
<path d="M51.578 86.227L23.711 72.1436C23.4344 72.0053 23.25 71.7057 23.25 71.3599V39.7819C23.25 39.1596 23.8032 38.7447 24.3103 38.9982L52.1773 53.0816C52.4539 53.2199 52.6383 53.5195 52.6383 53.8653V85.4433C52.6383 86.0656 52.0851 86.4805 51.578 86.227Z" fill="#27AAE1"/>
<path d="M24.2642 37.1082V37.9841C24.2642 38.1454 24.3564 38.3068 24.4947 38.3759L30.9255 41.672C31.0408 41.7181 31.156 41.7181 31.2713 41.672L60.9592 26.1596C61.0975 26.0905 61.1897 25.9291 61.1897 25.7678V24.6844" fill="#7D4901"/>
<path d="M30.8102 40.4041C30.7641 40.4041 30.718 40.4041 30.6719 40.3811L24.5638 37.3385C24.4485 37.2924 24.3794 37.1772 24.3794 37.0389C24.3794 36.9006 24.4485 36.7854 24.5638 36.7393L54.4822 21.4112C54.5283 21.4112 54.5744 21.3882 54.6205 21.3882C54.6666 21.3882 54.7127 21.3882 54.7588 21.4112L60.867 24.4307C60.9822 24.4768 61.0514 24.5921 61.0514 24.7304C61.0514 24.8687 60.9822 24.9839 60.867 25.03L30.9485 40.3811C30.9024 40.3811 30.8563 40.4041 30.8102 40.4041Z" fill="#B56C19"/>
<path d="M54.6207 21.4574H54.7129L60.8211 24.477C60.8902 24.523 60.9594 24.5922 60.9594 24.6844C60.9594 24.7766 60.9133 24.8688 60.8441 24.8918L30.9257 40.2429H30.8335H30.7413L24.6331 37.2004C24.564 37.1543 24.4949 37.0851 24.4949 36.9929C24.4949 36.9007 24.541 36.8085 24.6101 36.7855L54.5285 21.4574H54.6207ZM54.6207 21.25C54.5516 21.25 54.5055 21.25 54.4363 21.2961L24.5179 36.6241C24.1952 36.7855 24.1952 37.2465 24.5179 37.4078L30.6261 40.4504C30.6722 40.4734 30.7413 40.4965 30.8105 40.4965C30.8796 40.4965 30.9257 40.4964 30.9948 40.4504L60.9133 25.0993C61.236 24.9379 61.236 24.4769 60.9133 24.3156L54.8051 21.2961C54.759 21.2731 54.6899 21.25 54.6207 21.25Z" fill="#7C4B1E"/>
<path d="M31.7323 41.1418L31.8245 41.8103C31.8245 41.9716 31.9167 42.133 32.055 42.2021L38.4858 45.4982C38.6011 45.5443 38.7163 45.5443 38.8316 45.4982L68.5195 29.9858C68.6578 29.9166 68.75 29.7553 68.75 29.594V28.5106" fill="#7C4B1E"/>
<path d="M38.3705 44.2306C38.3244 44.2306 38.2783 44.2306 38.2323 44.2075L32.1241 41.165C32.0088 41.1189 31.9397 41.0036 31.9397 40.8653C31.9397 40.727 32.0088 40.6118 32.1241 40.5657L62.0425 25.2376C62.0886 25.2376 62.1347 25.2146 62.1808 25.2146C62.2269 25.2146 62.273 25.2146 62.3191 25.2376L68.4273 28.2571C68.5425 28.3032 68.6117 28.4185 68.6117 28.5568C68.6117 28.6951 68.5425 28.8103 68.4273 28.8564L38.5088 44.2075C38.4627 44.2075 38.4166 44.2306 38.3705 44.2306Z" fill="#B56C19"/>
<path d="M62.204 25.2837H62.2962L68.4043 28.3032C68.4735 28.3493 68.5426 28.4185 68.5426 28.5107C68.5426 28.6029 68.4965 28.6951 68.4274 28.7181L38.509 44.0692H38.4168H38.3246L32.2164 41.0266C32.1473 40.9805 32.0781 40.9114 32.0781 40.8192C32.0781 40.727 32.1242 40.6348 32.1934 40.6118L62.1118 25.2837H62.204ZM62.204 25.0763C62.1348 25.0763 62.0887 25.0763 62.0196 25.1224L32.1012 40.4504C31.7785 40.6118 31.7785 41.0727 32.1012 41.2341L38.2093 44.2766C38.2554 44.2997 38.3246 44.3227 38.3937 44.3227C38.4629 44.3227 38.509 44.3227 38.5781 44.2766L68.4965 28.9256C68.8192 28.7642 68.8192 28.3032 68.4965 28.1419L62.3884 25.1224C62.3423 25.0993 62.2731 25.0763 62.204 25.0763Z" fill="#7C4B1E"/>
<path d="M39.2465 44.9451L39.477 45.6366C39.477 45.7979 39.5692 45.9593 39.7075 46.0284L46.1383 49.3245C46.2536 49.3706 46.3688 49.3706 46.484 49.3245L76.172 33.8121C76.3103 33.7429 76.4025 33.5816 76.4025 33.4202V32.3369" fill="#7C4B1E"/>
<path d="M46.0231 48.0567C45.977 48.0567 45.9309 48.0567 45.8848 48.0337L39.7767 44.9911C39.6614 44.945 39.5923 44.8298 39.5923 44.6915C39.5923 44.5532 39.6614 44.4379 39.7767 44.3918L69.6951 29.0638C69.7412 29.0638 69.7873 29.0408 69.8334 29.0408C69.8795 29.0408 69.9256 29.0408 69.9717 29.0638L76.0799 32.0833C76.1951 32.1294 76.2643 32.2447 76.2643 32.383C76.2643 32.5213 76.1951 32.6365 76.0799 32.6826L46.1614 48.0337C46.1153 48.0337 46.0692 48.0567 46.0231 48.0567Z" fill="#B56C19"/>
<path d="M69.8563 29.1099H69.9485L76.0567 32.1294C76.1258 32.1755 76.195 32.2447 76.195 32.3369C76.195 32.4291 76.1489 32.5213 76.0797 32.5443L46.1613 47.8954H46.0691H45.9769L39.8687 44.8528C39.7996 44.8067 39.7304 44.7376 39.7304 44.6454C39.7304 44.5532 39.7765 44.461 39.8457 44.438L69.7641 29.1099H69.8563ZM69.8563 28.9255C69.7872 28.9255 69.7411 28.9255 69.6719 28.9716L39.7535 44.2997C39.4308 44.461 39.4308 44.922 39.7535 45.0833L45.8617 48.1259C45.9078 48.1489 45.9769 48.172 46.046 48.172C46.1152 48.172 46.1613 48.172 46.2304 48.1259L76.1489 32.7748C76.4716 32.6135 76.4716 32.1525 76.1489 31.9911L70.0407 28.9716C69.9946 28.9486 69.9255 28.9255 69.8563 28.9255Z" fill="#7C4B1E"/>
<path d="M46.8529 48.8404L47.0143 49.4627C47.0143 49.6241 47.1065 49.7854 47.2447 49.8546L53.6756 53.1507C53.7908 53.1968 53.9061 53.1968 54.0213 53.1507L83.7093 37.6383C83.8476 37.5691 83.9398 37.4078 83.9398 37.2464V36.1631" fill="#7C4B1E"/>
<path d="M53.5602 51.9061C53.5141 51.9061 53.468 51.9061 53.4219 51.883L47.3138 48.8405C47.1985 48.7944 47.1294 48.6791 47.1294 48.5408C47.1294 48.4025 47.1985 48.2873 47.3138 48.2412L77.2322 32.9132C77.2783 32.9132 77.3244 32.8901 77.3705 32.8901C77.4166 32.8901 77.4627 32.8901 77.5088 32.9132L83.617 35.9327C83.7322 35.9788 83.8014 36.094 83.8014 36.2323C83.8014 36.3706 83.7322 36.4859 83.617 36.532L53.6985 51.883C53.6524 51.883 53.6063 51.9061 53.5602 51.9061Z" fill="#B56C19"/>
<path d="M77.3936 32.9592H77.4858L83.5939 35.9787C83.6631 36.0248 83.7322 36.0939 83.7322 36.1861C83.7322 36.2783 83.6861 36.3705 83.617 36.3936L53.6985 51.7446H53.6063H53.5141L47.406 48.7021C47.3368 48.656 47.2677 48.5868 47.2677 48.4946C47.2677 48.4024 47.3138 48.3102 47.3829 48.2872L77.3014 32.9592H77.3936ZM77.3936 32.7517C77.3244 32.7517 77.2783 32.7517 77.2092 32.7978L47.2907 48.1258C46.968 48.2872 46.968 48.7482 47.2907 48.9095L53.3989 51.9521C53.445 51.9751 53.5141 51.9982 53.5833 51.9982C53.6524 51.9982 53.6985 51.9982 53.7677 51.9521L83.6861 36.601C84.0088 36.4397 84.0088 35.9787 83.6861 35.8173L77.578 32.7978C77.5319 32.7748 77.4627 32.7517 77.3936 32.7517Z" fill="#7C4B1E"/>
<path d="M61.1666 47.4574V48.1259C61.1666 48.2642 61.0975 48.3794 60.9822 48.4255L55.7269 50.984C55.6347 51.0301 55.5195 51.0301 55.4503 50.984L26.2464 36.1631C26.1312 36.117 26.062 35.9787 26.062 35.8635V35.0106" fill="#7C4B1E"/>
<path d="M55.8421 50.016C55.796 50.016 55.773 50.016 55.7269 49.9929L26.3155 35.3103C26.2233 35.2642 26.1772 35.172 26.1772 35.0798C26.1772 34.9876 26.2233 34.8954 26.3155 34.8493L31.2943 32.4752C31.3404 32.4752 31.3634 32.4521 31.4095 32.4521C31.4556 32.4521 31.4787 32.4521 31.5248 32.4752L60.9361 47.1348C61.0283 47.1809 61.0744 47.2731 61.0744 47.3653C61.0744 47.4575 61.0283 47.5497 60.9361 47.5958L55.9574 49.9699C55.9113 49.9699 55.8882 49.9929 55.8421 49.9929V50.016Z" fill="#B56C19"/>
<path d="M31.4096 32.5213H31.4787L60.8901 47.1809C60.9592 47.204 60.9823 47.2731 60.9823 47.3423C60.9823 47.4114 60.9362 47.4805 60.8901 47.5036L55.9114 49.8777H55.8422H55.7731L26.3617 35.1951C26.2926 35.172 26.2695 35.1029 26.2695 35.0337C26.2695 34.9646 26.3156 34.8954 26.3848 34.8724L31.3635 32.4983H31.4326M31.4096 32.36C31.3635 32.36 31.3174 32.36 31.2713 32.383L26.2926 34.7571C26.039 34.8724 26.039 35.2412 26.2926 35.3795L55.7039 50.0621C55.75 50.0852 55.7961 50.1082 55.8653 50.1082C55.9344 50.1082 55.9575 50.1082 56.0036 50.0852L60.9823 47.711C61.2358 47.5958 61.2358 47.227 60.9823 47.0887L31.5709 32.4291C31.5248 32.4061 31.4787 32.383 31.4096 32.383V32.36Z" fill="#7C4B1E"/>
<path d="M82.3724 36.8546V37.5231C82.3724 37.6614 82.3033 37.7766 82.188 37.8227L76.9327 40.3812C76.8405 40.4273 76.7253 40.4273 76.6561 40.3812L47.4522 25.5603C47.337 25.5142 47.2678 25.3759 47.2678 25.2607V24.4078" fill="#7C4B1E"/>
<path d="M77.0248 39.4361C76.9787 39.4361 76.9556 39.4361 76.9095 39.4131L47.4982 24.7305C47.406 24.6844 47.3599 24.5922 47.3599 24.5C47.3599 24.4078 47.406 24.3156 47.4982 24.2695L52.4769 21.8954C52.523 21.8954 52.546 21.8723 52.5921 21.8723C52.6382 21.8723 52.6613 21.8723 52.7074 21.8954L82.1187 36.5549C82.2109 36.601 82.257 36.6932 82.257 36.7854C82.257 36.8776 82.2109 36.9698 82.1187 37.0159L77.14 39.39C77.0939 39.39 77.0709 39.4131 77.0248 39.4131V39.4361Z" fill="#B56C19"/>
<path d="M52.5922 21.9415H52.6614L82.0727 36.6011C82.1419 36.6241 82.1649 36.6933 82.1649 36.7624C82.1649 36.8316 82.1188 36.9007 82.0727 36.9238L77.094 39.2979H77.0248H76.9557L47.5443 24.6153C47.4752 24.5922 47.4521 24.5231 47.4521 24.4539C47.4521 24.3848 47.4982 24.3156 47.5674 24.2926L52.5461 21.9185H52.6153M52.5922 21.7802C52.5461 21.7802 52.5 21.7802 52.4539 21.8032L47.4752 24.1773C47.2216 24.2926 47.2216 24.6614 47.4752 24.7997L76.8865 39.4823C76.9326 39.5053 76.9787 39.5284 77.0479 39.5284C77.117 39.5284 77.1401 39.5284 77.1862 39.5053L82.1649 37.1312C82.4185 37.016 82.4185 36.6472 82.1649 36.5089L52.7536 21.8493C52.7075 21.8263 52.6614 21.8032 52.5922 21.8032V21.7802Z" fill="#7C4B1E"/>
<path d="M47.2907 62.3936L43.4414 60.4113C43.3492 60.3652 43.2801 60.25 43.2801 60.1347V57.6223C43.2801 57.3918 43.5106 57.2535 43.695 57.3457L47.3137 59.2588C47.6595 59.4432 48.0283 59.5354 48.374 59.5354C48.9042 59.5354 49.3882 59.328 49.7801 58.9131L50.6098 58.0372C50.7251 57.9219 50.7251 57.7375 50.6098 57.5992L49.9645 56.8617C49.8492 56.7464 49.6879 56.7464 49.5726 56.8617L48.7428 57.7375C48.6737 57.8067 48.4432 58.0602 47.9361 57.8067L39.8687 53.5425C39.7304 53.4734 39.5691 53.5425 39.4999 53.6808L39.085 54.6028C39.0159 54.7641 39.085 54.9255 39.2233 55.0177L41.6435 56.3085C41.7357 56.3546 41.8049 56.4698 41.8049 56.5851V59.1666C41.8049 59.3741 41.6205 59.5124 41.4361 59.4663C40.8138 59.2588 40.1914 59.328 39.6613 59.6968C38.8776 60.25 38.4166 61.3563 38.4166 62.7393V66.1737C38.3705 69.4007 40.0301 72.7198 42.1506 73.7109C43.0957 74.1489 44.0407 74.1028 44.8244 73.5496C45.8386 72.8351 46.4379 71.3599 46.4609 69.5159L46.5531 63.8457L46.6223 63.8918C47.8439 64.5141 48.8811 66.773 48.8811 68.8014V72.8351C48.8811 73.8953 48.5584 74.4946 48.2588 74.7021C48.1896 74.7482 48.0513 74.8634 47.7517 74.7943C47.452 74.7251 47.4981 74.8404 47.429 74.9787L47.0602 75.9237C46.9911 76.0851 47.0602 76.2695 47.2216 76.3386C47.452 76.4078 47.6825 76.4539 47.913 76.4539C48.3279 76.4539 48.7198 76.3156 49.0655 76.0851C49.8723 75.5088 50.3333 74.3333 50.3333 72.8581V68.8244C50.3333 66.1276 48.9733 63.3386 47.2216 62.4397L47.2907 62.3936ZM39.8918 66.1507V62.7163C39.9148 61.7712 40.2145 61.218 40.468 61.0336C40.5602 60.9645 40.6524 60.9414 40.7677 60.9414C40.8829 60.9414 41.0212 60.9875 41.1825 61.0567L41.6205 61.2872C41.7127 61.3333 41.7818 61.4485 41.7818 61.5638L41.7357 70.5762C41.7357 70.8758 41.39 70.9911 41.2286 70.7606C40.4219 69.539 39.8687 67.8102 39.8918 66.1737V66.1507ZM45.0088 69.4698C45.0088 70.7375 44.6169 71.7517 44.0407 72.1666C43.8794 72.2819 43.695 72.351 43.5106 72.3741C43.3262 72.3971 43.2109 72.2588 43.2109 72.0744L43.257 62.6241C43.257 62.3936 43.4645 62.2553 43.6489 62.3475L44.9396 63.0159C45.0318 63.062 45.101 63.1773 45.101 63.2925L45.0088 69.4929V69.4698Z" fill="white"/>
<path d="M36.9184 70.6224L34.89 69.5851V66.289C34.5212 64.4912 33.968 62.8777 33.2074 61.4256C32.4698 59.9965 31.663 59.0975 30.8102 58.7287C30.0726 58.383 29.5194 58.4061 29.1737 58.7748C28.8279 59.1436 28.6205 59.8582 28.6205 60.8954V61.3564C28.851 61.3564 29.0815 61.4256 29.312 61.5408C29.8421 61.7944 30.3262 62.2784 30.718 63.016C31.1099 63.7305 31.2943 64.4681 31.2943 65.2057C31.2943 65.9433 31.0868 66.4734 30.6719 66.7961C30.257 67.1188 29.796 67.1419 29.2659 66.8653C28.4591 66.4504 27.8368 65.7589 27.3989 64.8139C26.984 63.8688 26.7765 62.7394 26.7765 61.4025V59.9965C26.7996 58.4291 27.1684 57.3227 27.8599 56.7004C28.5744 56.055 29.5655 56.0089 30.8563 56.5851C31.7322 56.977 32.5159 57.6685 33.2535 58.6826C33.9911 59.7199 34.5673 60.8954 34.9361 62.2553L34.9822 58.1525C34.9822 56.9078 34.7517 55.8014 34.2446 54.8795C33.7375 53.9575 32.8616 53.2199 31.5708 52.6897C30.2801 52.1596 29.796 52.2057 29.2198 52.4592C28.6435 52.7128 28.2517 53.266 28.0443 54.1649L26.2925 53.0816C26.5691 51.5834 27.1453 50.5922 28.0673 50.1543C28.9893 49.7163 30.2801 49.8085 31.9166 50.477C33.6453 51.1685 34.9361 52.1826 35.7659 53.5195C36.6187 54.8795 37.0336 56.6543 37.0106 58.867L36.9184 70.6454V70.6224ZM29.2889 65.1365C29.4733 65.2287 29.6347 65.2057 29.773 65.0905C29.9113 64.9752 29.9804 64.7908 29.9804 64.5373C29.9804 64.2837 29.9113 64.0532 29.773 63.7997C29.6347 63.5461 29.4733 63.3617 29.2889 63.2926C29.1045 63.2234 28.9432 63.2234 28.8049 63.3387C28.6666 63.4539 28.5974 63.6383 28.5974 63.8688C28.5974 64.1224 28.6666 64.3759 28.8049 64.6295C28.9432 64.883 29.1045 65.0674 29.2889 65.1596V65.1365Z" fill="white"/>
</svg>
