<?xml version="1.0" encoding="UTF-8" standalone="no"?>
<svg
   version="1.1"
   viewBox="0 0 74.999996 75.000002"
   id="svg45"
   sodipodi:docname="logo_dark_square.svg"
   width="75"
   height="75"
   inkscape:version="1.3 (0e150ed, 2023-07-21)"
   inkscape:export-filename="logo_dark_square_1024.png"
   inkscape:export-xdpi="1310.72"
   inkscape:export-ydpi="1310.72"
   xmlns:inkscape="http://www.inkscape.org/namespaces/inkscape"
   xmlns:sodipodi="http://sodipodi.sourceforge.net/DTD/sodipodi-0.dtd"
   xmlns="http://www.w3.org/2000/svg"
   xmlns:svg="http://www.w3.org/2000/svg">
  <defs
     id="defs45" />
  <sodipodi:namedview
     id="namedview45"
     pagecolor="#ffffff"
     bordercolor="#000000"
     borderopacity="0.25"
     inkscape:showpageshadow="2"
     inkscape:pageopacity="0.0"
     inkscape:pagecheckerboard="0"
     inkscape:deskcolor="#d1d1d1"
     inkscape:zoom="8.1826129"
     inkscape:cx="35.441002"
     inkscape:cy="37.335262"
     inkscape:window-width="1392"
     inkscape:window-height="1212"
     inkscape:window-x="0"
     inkscape:window-y="25"
     inkscape:window-maximized="0"
     inkscape:current-layer="svg45" />
  <g
     transform="matrix(0.9724134,0,0,0.9724134,115.91503,-13.079721)"
     id="g45">
    <g
       transform="matrix(0.26458,0,0,0.26458,-133.91,5.9002)"
       stroke-width="0px"
       id="g44">
      <path
         class="cls-2"
         d="M 209.6,200.7 329.4,133 c 1.2,-0.6 2,-2 2,-3.5 l 4.6,-19.6 c -0.2,-2.9 -2,-3.5 -4.3,-4.7 -2.3,-1.2 -4.6,-1.1 -6.8,0 l -122.5,63.6 c -1.2,0.6 -2,2 -2,3.5 v 21.9 c 0,6.8 7.1,7.7 9.3,6.6 z"
         fill="#939598"
         id="path1" />
      <path
         class="cls-4"
         d="M 209.6,200.7 334,136.2 c 1.2,-0.6 2,-2 2,-3.5 v -21.9 c 0,-2.7 -2.5,-4.6 -4.7,-3.5 l -124.4,64.5 c -1.2,0.6 -2,2 -2,3.5 v 21.9 c 0,2.7 2.5,4.6 4.7,3.5 z"
         fill="#6d6e71"
         id="path2" />
      <path
         class="cls-10"
         d="m 216.4,187.1 17.1,-9.5 c 0.4,-0.2 0.7,-0.7 0.7,-1.2 v -7.9 c 0,-1 -0.9,-1.6 -1.7,-1.2 l -17.1,9.5 c -0.4,0.2 -0.7,0.7 -0.7,1.2 v 7.9 c 0,1 0.9,1.6 1.7,1.2 z"
         fill="#ffffff"
         id="path3" />
      <path
         class="cls-2"
         d="m 209.5,239.1 119.8,-66.7 c 1.2,-0.6 2,-2 2,-3.5 l 4.6,-19.6 c -0.2,-2.9 -2,-3.5 -4.3,-4.7 -2.3,-1.2 -4.6,-1.1 -6.8,0 l -122.5,62.6 c -1.2,0.6 -2,2 -2,3.5 v 21.9 c 0,6.8 7.1,7.7 9.3,6.6 z"
         fill="#939598"
         id="path4" />
      <path
         class="cls-4"
         d="m 209.5,239.1 124.4,-63.5 c 1.2,-0.6 2,-2 2,-3.5 v -21.9 c 0,-2.7 -2.5,-4.6 -4.7,-3.5 l -124.4,63.5 c -1.2,0.6 -2,2 -2,3.5 v 21.9 c 0,2.7 2.5,4.6 4.7,3.5 z"
         fill="#6d6e71"
         id="path5" />
      <path
         class="cls-9"
         d="m 216.3,225.5 17.1,-9.5 c 0.4,-0.2 0.7,-0.7 0.7,-1.2 v -7.9 c 0,-1 -0.9,-1.6 -1.7,-1.2 l -17.1,9.5 c -0.4,0.2 -0.7,0.7 -0.7,1.2 v 7.9 c 0,1 0.9,1.6 1.7,1.2 z"
         fill="#27aae1"
         id="path6" />
      <path
         class="cls-2"
         d="m 209.5,277.3 119.8,-66.7 c 1.2,-0.6 2,-2 2,-3.5 l 4.6,-19.6 c -0.2,-2.9 -2,-3.5 -4.3,-4.7 -2.1,-1.1 -4.6,-1.1 -6.8,0 l -122.5,62.6 c -1.2,0.6 -2,2 -2,3.5 v 21.9 c 0,6.8 7.1,7.7 9.3,6.6 z"
         fill="#939598"
         id="path7" />
      <path
         class="cls-4"
         d="m 209.5,277.3 124.4,-63.5 c 1.2,-0.6 2,-2 2,-3.5 v -21.9 c 0,-2.7 -2.5,-4.6 -4.7,-3.5 l -124.4,63.5 c -1.2,0.6 -2,2 -2,3.5 v 21.9 c 0,2.7 2.5,4.6 4.7,3.5 z"
         fill="#6d6e71"
         id="path8" />
      <path
         class="cls-10"
         d="m 216.3,263.7 17.1,-9.5 c 0.4,-0.2 0.7,-0.7 0.7,-1.2 v -7.9 c 0,-1 -0.9,-1.6 -1.7,-1.2 l -17.1,9.5 c -0.4,0.2 -0.7,0.7 -0.7,1.2 v 7.9 c 0,1 0.9,1.6 1.7,1.2 z"
         fill="#ffffff"
         id="path9" />
      <path
         class="cls-2"
         d="m 209.5,315.5 119.8,-66.7 c 1.2,-0.6 2,-2 2,-3.5 l 4.6,-19.6 c -0.2,-2.9 -2,-3.5 -4.3,-4.7 -2.1,-1.1 -4.6,-1.1 -6.8,0 l -122.5,62.6 c -1.2,0.6 -2,2 -2,3.5 V 309 c 0,6.8 7.1,7.7 9.3,6.6 z"
         fill="#939598"
         id="path10" />
      <path
         class="cls-4"
         d="M 209.5,315.5 333.9,252 c 1.2,-0.6 2,-2 2,-3.5 v -21.9 c 0,-2.7 -2.5,-4.6 -4.7,-3.5 l -124.4,63.5 c -1.2,0.6 -2,2 -2,3.5 V 312 c 0,2.7 2.5,4.6 4.7,3.5 z"
         fill="#6d6e71"
         id="path11" />
      <g
         fill="#ffffff"
         id="g14">
        <path
           class="cls-10"
           d="m 216.3,301.9 17.1,-9.5 c 0.4,-0.2 0.7,-0.7 0.7,-1.2 v -7.9 c 0,-1 -0.9,-1.6 -1.7,-1.2 l -17.1,9.5 c -0.4,0.2 -0.7,0.7 -0.7,1.2 v 7.9 c 0,1 0.9,1.6 1.7,1.2 z"
           id="path12" />
        <path
           class="cls-10"
           d="m 238,175.4 4.2,-2.2 c 0.4,-0.2 0.7,-0.7 0.7,-1.2 v -7.9 c 0,-1 -0.9,-1.6 -1.7,-1.2 l -4.2,2.2 c -0.4,0.2 -0.7,0.7 -0.7,1.2 v 7.9 c 0,1 0.9,1.6 1.7,1.2 z"
           id="path13" />
        <path
           class="cls-10"
           d="m 237.9,213.8 4.2,-2.2 c 0.4,-0.2 0.7,-0.7 0.7,-1.2 v -7.9 c 0,-1 -0.9,-1.6 -1.7,-1.2 l -4.2,2.2 c -0.4,0.2 -0.7,0.7 -0.7,1.2 v 7.9 c 0,1 0.9,1.6 1.7,1.2 z"
           id="path14" />
      </g>
      <path
         class="cls-9"
         d="m 237.9,252 4.2,-2.2 c 0.4,-0.2 0.7,-0.7 0.7,-1.2 v -7.9 c 0,-1 -0.9,-1.6 -1.7,-1.2 l -4.2,2.2 c -0.4,0.2 -0.7,0.7 -0.7,1.2 v 7.9 c 0,1 0.9,1.6 1.7,1.2 z"
         fill="#27aae1"
         id="path15" />
      <path
         class="cls-10"
         d="m 237.9,290.2 4.2,-2.2 c 0.4,-0.2 0.7,-0.7 0.7,-1.2 v -7.9 c 0,-1 -0.9,-1.6 -1.7,-1.2 l -4.2,2.2 c -0.4,0.2 -0.7,0.7 -0.7,1.2 v 7.9 c 0,1 0.9,1.6 1.7,1.2 z"
         fill="#ffffff"
         id="path16" />
      <path
         class="cls-9"
         d="m 292.8,185.9 33,-17.1 c 0.4,-0.2 0.7,-0.7 0.7,-1.2 v -7.9 c 0,-1 -0.9,-1.6 -1.7,-1.2 l -33,17.1 c -0.4,0.2 -0.7,0.7 -0.7,1.2 v 7.9 c 0,1 0.9,1.6 1.7,1.2 z"
         fill="#27aae1"
         id="path17" />
      <path
         class="cls-10"
         d="m 292.8,224.1 33,-17.1 c 0.4,-0.2 0.7,-0.7 0.7,-1.2 v -7.9 c 0,-1 -0.9,-1.6 -1.7,-1.2 l -33,17.1 c -0.4,0.2 -0.7,0.7 -0.7,1.2 v 7.9 c 0,1 0.9,1.6 1.7,1.2 z"
         fill="#ffffff"
         id="path18" />
      <path
         class="cls-10"
         d="m 292.8,147.7 33,-17.1 c 0.4,-0.2 0.7,-0.7 0.7,-1.2 v -7.9 c 0,-1 -0.9,-1.6 -1.7,-1.2 l -33,17.1 c -0.4,0.2 -0.7,0.7 -0.7,1.2 v 7.9 c 0,1 0.9,1.6 1.7,1.2 z"
         fill="#ffffff"
         id="path19" />
      <path
         class="cls-9"
         d="m 292.8,262.3 33,-17.1 c 0.4,-0.2 0.7,-0.7 0.7,-1.2 v -7.9 c 0,-1 -0.9,-1.6 -1.7,-1.2 l -33,17.1 c -0.4,0.2 -0.7,0.7 -0.7,1.2 v 7.9 c 0,1 0.9,1.6 1.7,1.2 z"
         fill="#27aae1"
         id="path20" />
      <path
         class="cls-8"
         d="M 191,315.6 74.6,251.4 c -1.2,-0.6 -2,-1.9 -2,-3.4 L 68.1,113.3 c 0.2,-2.8 2,-3.5 4.3,-4.7 2.3,-1.2 4.6,-1.1 6.7,0 l 119.1,60.2 c 1.2,0.6 2,1.9 2,3.4 v 137 c 0,6.7 -7,7.7 -9.2,6.6 z"
         fill="#1e81ab"
         id="path21" />
      <path
         class="cls-9"
         d="M 191,315.6 70.1,254.5 c -1.2,-0.6 -2,-1.9 -2,-3.4 v -137 c 0,-2.7 2.4,-4.5 4.6,-3.4 l 120.9,61.1 c 1.2,0.6 2,1.9 2,3.4 v 137 c 0,2.7 -2.4,4.5 -4.6,3.4 z"
         fill="#27aae1"
         id="path22" />
      <path
         class="cls-3"
         d="m 72.5,102.5 v 3.8 c 0,0.7 0.4,1.4 1,1.7 l 27.9,14.3 c 0.5,0.2 1,0.2 1.5,0 L 231.7,54.9 c 0.6,-0.3 1,-1 1,-1.7 v -4.7"
         fill="#7d4901"
         id="path23" />
      <path
         class="cls-5"
         d="m 100.9,116.7 c -0.2,0 -0.4,0 -0.6,-0.1 L 73.8,103.4 c -0.5,-0.2 -0.8,-0.7 -0.8,-1.3 0,-0.6 0.3,-1.1 0.8,-1.3 L 203.6,34.3 c 0.2,0 0.4,-0.1 0.6,-0.1 0.2,0 0.4,0 0.6,0.1 l 26.5,13.1 c 0.5,0.2 0.8,0.7 0.8,1.3 0,0.6 -0.3,1.1 -0.8,1.3 l -129.8,66.6 c -0.2,0 -0.4,0.1 -0.6,0.1 z"
         fill="#b56c19"
         id="path24" />
      <path
         class="cls-1"
         d="m 204.2,34.6 h 0.4 l 26.5,13.1 c 0.3,0.2 0.6,0.5 0.6,0.9 0,0.4 -0.2,0.8 -0.5,0.9 l -129.9,66.7 h -0.4 -0.4 L 74,103 c -0.3,-0.2 -0.6,-0.5 -0.6,-0.9 0,-0.4 0.2,-0.8 0.5,-0.9 L 203.8,34.7 h 0.4 m 0,-1 c -0.3,0 -0.5,0 -0.8,0.2 L 73.6,100.4 c -1.4,0.7 -1.4,2.7 0,3.4 l 26.5,13.2 c 0.2,0.1 0.5,0.2 0.8,0.2 0.3,0 0.5,0 0.8,-0.2 L 231.5,50.4 c 1.4,-0.7 1.4,-2.7 0,-3.4 L 205,33.9 c -0.2,-0.1 -0.5,-0.2 -0.8,-0.2 z"
         fill="#7c4b1e"
         id="path25" />
      <path
         class="cls-1"
         d="m 104.9,119.9 0.4,2.9 c 0,0.7 0.4,1.4 1,1.7 l 27.9,14.3 c 0.5,0.2 1,0.2 1.5,0 L 264.5,71.5 c 0.6,-0.3 1,-1 1,-1.7 v -4.7"
         fill="#7c4b1e"
         id="path26" />
      <path
         class="cls-5"
         d="m 133.8,133.3 c -0.2,0 -0.4,0 -0.6,-0.1 L 106.7,120 c -0.5,-0.2 -0.8,-0.7 -0.8,-1.3 0,-0.6 0.3,-1.1 0.8,-1.3 L 236.5,50.9 c 0.2,0 0.4,-0.1 0.6,-0.1 0.2,0 0.4,0 0.6,0.1 L 264.2,64 c 0.5,0.2 0.8,0.7 0.8,1.3 0,0.6 -0.3,1.1 -0.8,1.3 l -129.8,66.6 c -0.2,0 -0.4,0.1 -0.6,0.1 z"
         fill="#b56c19"
         id="path27" />
      <path
         class="cls-1"
         d="m 237.1,51.2 h 0.4 L 264,64.3 c 0.3,0.2 0.6,0.5 0.6,0.9 0,0.4 -0.2,0.8 -0.5,0.9 l -129.8,66.6 h -0.4 -0.4 L 107,119.5 c -0.3,-0.2 -0.6,-0.5 -0.6,-0.9 0,-0.4 0.2,-0.8 0.5,-0.9 L 236.7,51.2 h 0.4 m 0,-0.9 c -0.3,0 -0.5,0 -0.8,0.2 L 106.4,117 c -1.4,0.7 -1.4,2.7 0,3.4 l 26.5,13.2 c 0.2,0.1 0.5,0.2 0.8,0.2 0.3,0 0.5,0 0.8,-0.2 L 264.3,67 c 1.4,-0.7 1.4,-2.7 0,-3.4 L 237.8,50.5 c -0.2,-0.1 -0.5,-0.2 -0.8,-0.2 z"
         fill="#7c4b1e"
         id="path28" />
      <path
         class="cls-1"
         d="m 137.5,136.5 1,3 c 0,0.7 0.4,1.4 1,1.7 l 27.9,14.3 c 0.5,0.2 1,0.2 1.5,0 L 297.7,88.2 c 0.6,-0.3 1,-1 1,-1.7 v -4.7"
         fill="#7c4b1e"
         id="path29" />
      <path
         class="cls-5"
         d="m 166.9,150 c -0.2,0 -0.4,0 -0.6,-0.1 l -26.5,-13.2 c -0.5,-0.2 -0.8,-0.7 -0.8,-1.3 0,-0.6 0.3,-1.1 0.8,-1.3 L 269.6,67.6 c 0.2,0 0.4,-0.1 0.6,-0.1 0.2,0 0.4,0 0.6,0.1 l 26.5,13.1 c 0.5,0.2 0.8,0.7 0.8,1.3 0,0.6 -0.3,1.1 -0.8,1.3 l -129.8,66.6 c -0.2,0 -0.4,0.1 -0.6,0.1 z"
         fill="#b56c19"
         id="path30" />
      <path
         class="cls-1"
         d="m 270.3,67.8 h 0.4 l 26.5,13.1 c 0.3,0.2 0.6,0.5 0.6,0.9 0,0.4 -0.2,0.8 -0.5,0.9 l -129.8,66.6 h -0.4 -0.4 l -26.5,-13.2 c -0.3,-0.2 -0.6,-0.5 -0.6,-0.9 0,-0.4 0.2,-0.8 0.5,-0.9 L 269.9,67.8 h 0.4 m 0,-0.9 c -0.3,0 -0.5,0 -0.8,0.2 l -129.8,66.5 c -1.4,0.7 -1.4,2.7 0,3.4 l 26.5,13.2 c 0.2,0.1 0.5,0.2 0.8,0.2 0.3,0 0.5,0 0.8,-0.2 L 297.6,83.6 c 1.4,-0.7 1.4,-2.7 0,-3.4 L 271.1,67.1 c -0.2,-0.1 -0.5,-0.2 -0.8,-0.2 z"
         fill="#7c4b1e"
         id="path31" />
      <path
         class="cls-1"
         d="m 170.5,153.4 0.7,2.7 c 0,0.7 0.4,1.4 1,1.7 l 27.9,14.3 c 0.5,0.2 1,0.2 1.5,0 l 128.8,-67.3 c 0.6,-0.3 1,-1 1,-1.7 v -4.7"
         fill="#7c4b1e"
         id="path32" />
      <path
         class="cls-5"
         d="m 199.6,166.6 c -0.2,0 -0.4,0 -0.6,-0.1 l -26.5,-13.2 c -0.5,-0.2 -0.8,-0.7 -0.8,-1.3 0,-0.6 0.3,-1.1 0.8,-1.3 L 302.3,84.2 c 0.2,0 0.4,-0.1 0.6,-0.1 0.2,0 0.4,0 0.6,0.1 L 330,97.3 c 0.5,0.2 0.8,0.7 0.8,1.3 0,0.6 -0.3,1.1 -0.8,1.3 l -129.8,66.6 c -0.2,0 -0.4,0.1 -0.6,0.1 z"
         fill="#b56c19"
         id="path33" />
      <path
         class="cls-1"
         d="m 303,84.5 h 0.4 l 26.5,13.1 c 0.3,0.2 0.6,0.5 0.6,0.9 0,0.4 -0.2,0.8 -0.5,0.9 L 200.2,166 h -0.4 -0.4 l -26.5,-13.2 c -0.3,-0.2 -0.6,-0.5 -0.6,-0.9 0,-0.4 0.2,-0.8 0.5,-0.9 L 302.6,84.5 h 0.4 m 0,-0.9 c -0.3,0 -0.5,0 -0.8,0.2 l -129.8,66.5 c -1.4,0.7 -1.4,2.7 0,3.4 l 26.5,13.2 c 0.2,0.1 0.5,0.2 0.8,0.2 0.3,0 0.5,0 0.8,-0.2 l 129.8,-66.6 c 1.4,-0.7 1.4,-2.7 0,-3.4 L 303.8,83.8 c -0.2,-0.1 -0.5,-0.2 -0.8,-0.2 z"
         fill="#7c4b1e"
         id="path34" />
      <path
         class="cls-7"
         d="M 187.8,38.2"
         fill="#58595b"
         id="path35" />
      <path
         class="cls-7"
         d="M 187.8,40.7"
         fill="#58595b"
         id="path36" />
      <path
         class="cls-1"
         d="m 232.6,147.3 v 2.9 c 0,0.6 -0.3,1.1 -0.8,1.3 L 209,162.6 c -0.4,0.2 -0.9,0.2 -1.2,0 L 81.1,98.3 C 80.6,98.1 80.3,97.5 80.3,97 v -3.7"
         fill="#7c4b1e"
         id="path37" />
      <path
         class="cls-5"
         d="m 209.5,158.5 c -0.2,0 -0.3,0 -0.5,-0.1 L 81.4,94.7 c -0.4,-0.2 -0.6,-0.6 -0.6,-1 0,-0.4 0.2,-0.8 0.6,-1 L 103,82.4 c 0.2,0 0.3,-0.1 0.5,-0.1 0.2,0 0.3,0 0.5,0.1 L 231.6,146 c 0.4,0.2 0.6,0.6 0.6,1 0,0.4 -0.2,0.8 -0.6,1 L 210,158.3 c -0.2,0 -0.3,0.1 -0.5,0.1 z"
         fill="#b56c19"
         id="path38" />
      <path
         class="cls-1"
         d="m 103.5,82.6 h 0.3 l 127.6,63.6 c 0.3,0.1 0.4,0.4 0.4,0.7 0,0.3 -0.2,0.6 -0.4,0.7 l -21.6,10.3 h -0.3 -0.3 L 81.6,94.2 c -0.3,-0.1 -0.4,-0.4 -0.4,-0.7 0,-0.3 0.2,-0.6 0.5,-0.7 l 21.6,-10.3 h 0.3 m -0.1,-0.6 c -0.2,0 -0.4,0 -0.6,0.1 L 81.3,92.3 c -1.1,0.5 -1.1,2.1 0,2.7 l 127.6,63.7 c 0.2,0.1 0.4,0.2 0.7,0.2 0.3,0 0.4,0 0.6,-0.1 l 21.6,-10.3 c 1.1,-0.5 1.1,-2.1 0,-2.7 L 104.2,82.2 C 104,82.1 103.8,82 103.5,82 Z"
         fill="#7c4b1e"
         id="path39" />
      <path
         class="cls-1"
         d="m 324.6,101.4 v 2.9 c 0,0.6 -0.3,1.1 -0.8,1.3 L 301,116.7 c -0.4,0.2 -0.9,0.2 -1.2,0 L 173.1,52.4 c -0.5,-0.2 -0.8,-0.8 -0.8,-1.3 v -3.7"
         fill="#7c4b1e"
         id="path40" />
      <path
         class="cls-5"
         d="m 301.4,112.5 c -0.2,0 -0.3,0 -0.5,-0.1 L 173.3,48.7 c -0.4,-0.2 -0.6,-0.6 -0.6,-1 0,-0.4 0.2,-0.8 0.6,-1 l 21.6,-10.3 c 0.2,0 0.3,-0.1 0.5,-0.1 0.2,0 0.3,0 0.5,0.1 L 323.5,100 c 0.4,0.2 0.6,0.6 0.6,1 0,0.4 -0.2,0.8 -0.6,1 l -21.6,10.3 c -0.2,0 -0.3,0.1 -0.5,0.1 z"
         fill="#b56c19"
         id="path41" />
      <path
         class="cls-1"
         d="m 195.4,36.7 h 0.3 l 127.6,63.6 c 0.3,0.1 0.4,0.4 0.4,0.7 0,0.3 -0.2,0.6 -0.4,0.7 L 301.7,112 h -0.3 -0.3 L 173.5,48.3 c -0.3,-0.1 -0.4,-0.4 -0.4,-0.7 0,-0.3 0.2,-0.6 0.5,-0.7 l 21.6,-10.3 h 0.3 M 195.4,36 c -0.2,0 -0.4,0 -0.6,0.1 l -21.6,10.3 c -1.1,0.5 -1.1,2.1 0,2.7 l 127.6,63.7 c 0.2,0.1 0.4,0.2 0.7,0.2 0.3,0 0.4,0 0.6,-0.1 l 21.6,-10.3 c 1.1,-0.5 1.1,-2.1 0,-2.7 L 196.1,36.3 c -0.2,-0.1 -0.4,-0.2 -0.7,-0.2 z"
         fill="#7c4b1e"
         id="path42" />
      <path
         class="cls-10"
         d="m 172.4,212.1 -16.7,-8.6 c -0.4,-0.2 -0.7,-0.7 -0.7,-1.2 v -10.9 c 0,-1 1,-1.6 1.8,-1.2 l 15.7,8.3 c 1.5,0.8 3.1,1.2 4.6,1.2 2.3,0 4.4,-0.9 6.1,-2.7 l 3.6,-3.8 c 0.5,-0.5 0.5,-1.3 0,-1.9 l -2.8,-3.2 c -0.5,-0.5 -1.2,-0.5 -1.7,0 l -3.6,3.8 c -0.3,0.3 -1.3,1.4 -3.5,0.3 l -35,-18.5 c -0.6,-0.3 -1.3,0 -1.6,0.6 l -1.8,4 c -0.3,0.7 0,1.4 0.6,1.8 l 10.5,5.6 c 0.4,0.2 0.7,0.7 0.7,1.2 v 11.2 c 0,0.9 -0.8,1.5 -1.6,1.3 -2.7,-0.9 -5.4,-0.6 -7.7,1 -3.4,2.4 -5.4,7.2 -5.4,13.2 v 14.9 c -0.2,14 7,28.4 16.2,32.7 4.1,1.9 8.2,1.7 11.6,-0.7 4.4,-3.1 7,-9.5 7.1,-17.5 l 0.4,-24.6 0.3,0.2 c 5.3,2.7 9.8,12.5 9.8,21.3 v 17.5 c 0,4.6 -1.4,7.2 -2.7,8.1 -0.3,0.2 -0.9,0.7 -2.2,0.4 -1.3,-0.3 -1.1,0.2 -1.4,0.8 l -1.6,4.1 c -0.3,0.7 0,1.5 0.7,1.8 1,0.3 2,0.5 3,0.5 1.8,0 3.5,-0.6 5,-1.6 3.5,-2.5 5.5,-7.6 5.5,-14 V 240 c 0,-11.7 -5.9,-23.8 -13.5,-27.7 z m -32.1,16.4 v -14.9 c 0.1,-4.1 1.4,-6.5 2.5,-7.3 0.4,-0.3 0.8,-0.4 1.3,-0.4 0.5,0 1.1,0.2 1.8,0.5 l 1.9,1 c 0.4,0.2 0.7,0.7 0.7,1.2 l -0.2,39.1 c 0,1.3 -1.5,1.8 -2.2,0.8 -3.5,-5.3 -5.9,-12.8 -5.8,-19.9 z m 22.2,14.3 c 0,5.5 -1.7,9.9 -4.2,11.7 -0.7,0.5 -1.5,0.8 -2.3,0.9 -0.8,0.1 -1.3,-0.5 -1.3,-1.3 l 0.2,-41 c 0,-1 0.9,-1.6 1.7,-1.2 l 5.6,2.9 c 0.4,0.2 0.7,0.7 0.7,1.2 l -0.4,26.9 z"
         fill="#ffffff"
         id="path43" />
      <path
         class="cls-10"
         d="m 127.4,247.9 -8.8,-4.5 v -14.3 c -1.6,-7.8 -4,-14.8 -7.3,-21.1 -3.2,-6.2 -6.7,-10.1 -10.4,-11.7 -3.2,-1.5 -5.6,-1.4 -7.1,0.2 -1.5,1.6 -2.4,4.7 -2.4,9.2 v 2 c 1,0 2,0.3 3,0.8 2.3,1.1 4.4,3.2 6.1,6.4 1.7,3.1 2.5,6.3 2.5,9.5 0,3.2 -0.9,5.5 -2.7,6.9 -1.8,1.4 -3.8,1.5 -6.1,0.3 -3.5,-1.8 -6.2,-4.8 -8.1,-8.9 -1.8,-4.1 -2.7,-9 -2.7,-14.8 v -6.1 c 0.1,-6.8 1.7,-11.6 4.7,-14.3 3.1,-2.8 7.4,-3 13,-0.5 3.8,1.7 7.2,4.7 10.4,9.1 3.2,4.5 5.7,9.6 7.3,15.5 l 0.2,-17.8 c 0,-5.4 -1,-10.2 -3.2,-14.2 -2.2,-4 -6,-7.2 -11.6,-9.5 -5.6,-2.3 -7.7,-2.1 -10.2,-1 -2.5,1.1 -4.2,3.5 -5.1,7.4 l -7.6,-4.7 c 1.2,-6.5 3.7,-10.8 7.7,-12.7 4,-1.9 9.6,-1.5 16.7,1.4 7.5,3 13.1,7.4 16.7,13.2 3.7,5.9 5.5,13.6 5.4,23.2 L 127.4,248 Z M 94.3,224.1 c 0.8,0.4 1.5,0.3 2.1,-0.2 0.6,-0.5 0.9,-1.3 0.9,-2.4 0,-1.1 -0.3,-2.1 -0.9,-3.2 -0.6,-1.1 -1.3,-1.9 -2.1,-2.2 -0.8,-0.3 -1.5,-0.3 -2.1,0.2 -0.6,0.5 -0.9,1.3 -0.9,2.3 0,1.1 0.3,2.2 0.9,3.3 0.6,1.1 1.3,1.9 2.1,2.3 z"
         fill="#ffffff"
         id="path44" />
    </g>
  </g>
</svg>
